<svg width="54" height="54" viewBox="0 0 54 54" fill="none" xmlns="http://www.w3.org/2000/svg">
<g clip-path="url(#clip0_9353_1724)">
<path d="M13.9952 8.89619H40.0776C40.4505 8.89619 40.7528 8.59441 40.7528 8.22104C40.7528 7.84819 40.4505 7.5459 40.0776 7.5459H13.9952C13.6218 7.5459 13.3201 7.84819 13.3201 8.22104C13.3201 8.59441 13.6218 8.89619 13.9952 8.89619Z" fill="black"/>
<path d="M13.9952 14.0046H40.0776C40.4505 14.0046 40.7528 13.7028 40.7528 13.3294C40.7528 12.9566 40.4505 12.6543 40.0776 12.6543H13.9952C13.6218 12.6543 13.3201 12.9566 13.3201 13.3294C13.3201 13.7028 13.6218 14.0046 13.9952 14.0046Z" fill="black"/>
<path d="M47.9242 53.3251V0.675144C47.9242 0.301781 47.6224 0 47.2491 0H6.95053C6.57717 0 6.27539 0.301781 6.27539 0.675144V53.3251C6.27539 53.6979 6.57717 54.0002 6.95053 54.0002H47.2491C47.6224 54.0002 47.9242 53.6979 47.9242 53.3251ZM7.62516 1.34977H46.5744V44.0332H38.5453C38.1725 44.0332 37.8702 44.335 37.8702 44.7084V52.6499H7.62516V1.34977ZM45.3272 45.383L39.2205 51.4897V45.383H45.3272ZM39.9693 52.6499L46.5744 46.0452V52.6499H39.9693Z" fill="black"/>
<path d="M13.9952 19.113H40.0776C40.4505 19.113 40.7528 18.8107 40.7528 18.4378C40.7528 18.0645 40.4505 17.7627 40.0776 17.7627H13.9952C13.6218 17.7627 13.3201 18.0645 13.3201 18.4378C13.3201 18.8107 13.6218 19.113 13.9952 19.113Z" fill="black"/>
<path d="M13.9952 24.2214H40.0776C40.4505 24.2214 40.7528 23.9191 40.7528 23.5462C40.7528 23.1729 40.4505 22.8711 40.0776 22.8711H13.9952C13.6218 22.8711 13.3201 23.1729 13.3201 23.5462C13.3201 23.9191 13.6218 24.2214 13.9952 24.2214Z" fill="black"/>
<path d="M25.6863 35.9727H17.6922C17.3194 35.9727 17.0176 36.2744 17.0176 36.6478C17.0176 37.0206 17.3194 37.3229 17.6922 37.3229H25.6863C26.0592 37.3229 26.3615 37.0206 26.3615 36.6478C26.3615 36.2744 26.0592 35.9727 25.6863 35.9727Z" fill="black"/>
<path d="M25.6863 40.168H17.6922C17.3194 40.168 17.0176 40.4703 17.0176 40.8431C17.0176 41.2165 17.3194 41.5183 17.6922 41.5183H25.6863C26.0592 41.5183 26.3615 41.2165 26.3615 40.8431C26.3615 40.4703 26.0592 40.168 25.6863 40.168Z" fill="black"/>
<path d="M31.2172 38.4087L30.0996 36.4734V34.2379C30.0996 33.9969 29.9709 33.7739 29.7618 33.6534L27.8265 32.5353L26.7095 30.6C26.5885 30.3909 26.366 30.2627 26.1245 30.2627H23.8894L21.9541 29.1447C21.7456 29.0247 21.487 29.0247 21.279 29.1447L19.3437 30.2627H17.1081C16.8671 30.2627 16.6441 30.3909 16.5236 30.6L15.4056 32.5353L13.4703 33.6534C13.2612 33.7739 13.133 33.9969 13.133 34.2379V36.4734L12.0149 38.4087C11.8944 38.6178 11.8944 38.8748 12.0149 39.0834L13.133 41.0192V43.2542C13.133 43.4957 13.2612 43.7182 13.4703 43.8387L15.4056 44.9562L16.5236 46.8915C16.6441 47.1006 16.8671 47.2289 17.1081 47.2289H19.3437L21.279 48.3469C21.383 48.4071 21.4999 48.4375 21.6163 48.4375C21.7332 48.4375 21.8496 48.4071 21.9541 48.3469L23.8894 47.2289H26.1245C26.366 47.2289 26.5885 47.1006 26.7095 46.8915L27.8265 44.9562L29.7618 43.8387C29.9709 43.7182 30.0996 43.4957 30.0996 43.2542V41.0192L31.2172 39.0834C31.3382 38.8748 31.3382 38.6178 31.2172 38.4087ZM28.8395 40.5006C28.7802 40.6036 28.7493 40.7195 28.7493 40.8384V42.8649L26.9948 43.8773C26.8918 43.9366 26.8068 44.0215 26.7476 44.1245L25.7351 45.8791H23.7087C23.5902 45.8791 23.4739 45.91 23.3714 45.9692L21.6163 46.9832L19.8618 45.9692C19.7588 45.91 19.6429 45.8791 19.5244 45.8791H17.498L16.4845 44.1245C16.4253 44.0215 16.3403 43.9366 16.2373 43.8773L14.4827 42.8649V40.8384C14.4827 40.7195 14.4518 40.6036 14.3926 40.5006L13.3786 38.746L14.3926 36.9915C14.4518 36.8885 14.4827 36.7726 14.4827 36.6537V34.6277L16.2373 33.6142C16.3403 33.555 16.4253 33.47 16.4845 33.367L17.498 31.6125H19.5244C19.6429 31.6125 19.7588 31.5816 19.8618 31.5224L21.6163 30.5084L23.3714 31.5224C23.4739 31.5816 23.5902 31.6125 23.7087 31.6125H25.7351L26.7476 33.367C26.8068 33.47 26.8918 33.555 26.9948 33.6142L28.7493 34.6277V36.6537C28.7493 36.7726 28.7802 36.8885 28.8395 36.9915L29.8535 38.746L28.8395 40.5006Z" fill="black"/>
</g>
<defs>
<clipPath id="clip0_9353_1724">
<rect width="54" height="54" fill="white"/>
</clipPath>
</defs>
</svg>
