<svg width="54" height="54" viewBox="0 0 54 54" fill="none" xmlns="http://www.w3.org/2000/svg">
<path d="M5.94527 44.4908H18.0236V44.9306C18.0236 45.1213 18.124 45.2977 18.288 45.395L23.5596 48.5242C23.6429 48.5738 23.7381 48.5999 23.8351 48.5999H30.1754C30.2724 48.5999 30.3676 48.5738 30.4509 48.5242L35.7225 45.395C35.8865 45.2977 35.987 45.1213 35.987 44.9306V44.4908H48.0553C48.3535 44.4908 48.5952 44.2491 48.5952 43.9508V27.7142C48.5952 27.416 48.3535 27.1742 48.0553 27.1742H35.987V26.7344C35.987 26.5437 35.8865 26.3674 35.7225 26.2701L30.4509 23.1408C30.3676 23.0912 30.2724 23.0651 30.1754 23.0651H30.0016V18.3481C30.5744 18.1989 31.0626 17.8434 31.3763 17.359H40.3661C42.1772 17.359 43.6506 15.8856 43.6506 14.0747C43.6506 12.2638 42.1772 10.7904 40.3661 10.7904H31.4047C31.0981 10.2897 30.6109 9.91792 30.032 9.75856V8.42659C30.032 6.75755 28.6743 5.3999 27.0053 5.3999C25.3362 5.3999 23.9786 6.75755 23.9786 8.42659V9.7585C23.3996 9.91775 22.9124 10.2896 22.6058 10.7904H13.6442C11.8333 10.7904 10.3599 12.2638 10.3599 14.0747C10.3599 15.8856 11.8333 17.359 13.6442 17.359H22.6342C22.9479 17.8435 23.436 18.199 24.0089 18.3481V23.0651H23.8351C23.7381 23.0651 23.6429 23.0912 23.5596 23.1408L18.288 26.2701C18.124 26.3674 18.0236 26.5437 18.0236 26.7344V27.1742H5.94527C5.64706 27.1742 5.40527 27.416 5.40527 27.7142V43.9508C5.40527 44.2491 5.64706 44.4908 5.94527 44.4908ZM29.6354 24.1451V47.5199H24.3751V24.1451H29.6354ZM47.5153 28.2542V43.4108H35.987V28.2542H47.5153ZM34.907 44.6232L30.7154 47.1114V24.5537L34.907 27.0418V44.6232ZM40.3661 11.8704C41.5816 11.8704 42.5706 12.8592 42.5706 14.0747C42.5706 15.2902 41.5816 16.279 40.3661 16.279H31.7351C31.74 16.217 31.7537 16.1575 31.7537 16.0942V12.003C31.7537 11.9576 31.7429 11.9152 31.7403 11.8704H40.3661ZM27.0053 6.4799C28.0787 6.4799 28.952 7.35318 28.952 8.42659V9.66585H25.0586V8.42659C25.0586 7.35318 25.9319 6.4799 27.0053 6.4799ZM13.6442 16.279C12.4287 16.279 11.4399 15.2902 11.4399 14.0747C11.4399 12.8592 12.4287 11.8704 13.6442 11.8704H22.2702C22.2676 11.9152 22.2568 11.9576 22.2568 12.003V16.0942C22.2568 16.1575 22.2705 16.217 22.2755 16.279H13.6442ZM23.3368 16.0942V12.003C23.3368 11.3098 23.9008 10.7458 24.594 10.7458H29.4163C30.1097 10.7458 30.6737 11.3098 30.6737 12.003V16.0942C30.6737 16.7874 30.1097 17.3514 29.4163 17.3514H24.594C23.9008 17.3514 23.3368 16.7874 23.3368 16.0942ZM25.0889 18.4314H28.9216V23.0651H25.0889V18.4314ZM19.1036 27.0418L23.2951 24.5537V47.1114L19.1036 44.6232V27.0418ZM6.48527 28.2542H18.0236V43.4108H6.48527V28.2542Z" fill="#333439"/>
</svg>
