<svg width="54" height="54" viewBox="0 0 54 54" fill="none" xmlns="http://www.w3.org/2000/svg">
<g clip-path="url(#clip0_9292_9908)">
<path d="M0.675144 14.974C1.04799 14.974 1.34977 14.6717 1.34977 14.2988C1.34977 13.2333 2.21701 12.3666 3.28199 12.3666C3.44421 12.3666 3.61622 12.3949 3.82324 12.4562C4.0519 12.5247 4.29651 12.467 4.47109 12.3059C4.64567 12.1452 4.72292 11.9052 4.67554 11.6729C4.63743 11.4855 4.61735 11.2939 4.61735 11.1039C4.61735 9.56975 5.86618 8.32091 7.39981 8.32091C8.93446 8.32091 10.1828 9.56975 10.1828 11.1039L10.1756 11.2203C10.1606 11.5215 10.346 11.796 10.6313 11.8939C11.4136 12.1622 11.9399 12.8929 11.9399 13.7112C11.9399 14.0841 12.2417 14.3864 12.6145 14.3864H16.5825C16.9553 14.3864 17.2571 14.0841 17.2571 13.7112C17.2571 13.3384 16.9553 13.0361 16.5825 13.0361H13.2191C13.0167 12.0854 12.3952 11.2656 11.5223 10.8114C11.3945 8.98575 10.0736 7.48766 8.33759 7.08289C8.49312 6.17188 9.28259 5.47459 10.2369 5.47459C10.3986 5.47459 10.5706 5.50291 10.7791 5.5642C11.0052 5.63218 11.2524 5.5745 11.4265 5.41331C11.601 5.25315 11.6778 5.01316 11.6304 4.78091C11.5918 4.59139 11.5717 4.39982 11.5717 4.21185C11.5717 2.67771 12.8205 1.42887 14.3552 1.42887C15.8893 1.42887 17.1382 2.67771 17.1356 4.25511C17.1346 4.26232 17.1309 4.3303 17.1309 4.33699C17.1191 4.63517 17.304 4.90502 17.5857 5.00184C18.3685 5.27066 18.8948 6.00091 18.8948 6.81921C18.8948 7.19206 19.1965 7.49436 19.5699 7.49436H23.5373C23.9102 7.49436 24.2125 7.19206 24.2125 6.81921C24.2125 6.44637 23.9102 6.14407 23.5373 6.14407H20.174C19.9716 5.19341 19.351 4.37355 18.4776 3.91934C18.3273 1.77649 16.5356 0.0791016 14.3552 0.0791016C12.1052 0.0791016 10.2693 1.88567 10.2224 4.1243C8.56161 4.13151 7.20308 5.38344 6.99709 6.99122C4.93561 7.19206 3.31238 8.91314 3.26809 11.0163C1.46461 11.0235 0 12.4933 0 14.2988C0 14.6717 0.301781 14.974 0.675144 14.974Z" fill="#333439"/>
<path d="M41.3104 8.08195C41.6837 8.08195 41.9855 7.77966 41.9855 7.40681C41.9855 6.34131 42.8594 5.47459 43.9342 5.47459C44.0975 5.47459 44.2715 5.50291 44.4811 5.56471C44.7093 5.63115 44.9549 5.57347 45.129 5.41228C45.303 5.2516 45.3803 5.0111 45.3314 4.77885C45.2933 4.59345 45.2737 4.40239 45.2737 4.21185C45.2737 2.67771 46.5318 1.42887 48.0783 1.42887C49.6248 1.42887 50.8824 2.67771 50.8798 4.26129C50.8798 4.26695 50.8757 4.33133 50.8757 4.33699C50.8638 4.63517 51.0498 4.90605 51.332 5.00183C52.1204 5.27117 52.6503 6.00142 52.6503 6.81921C52.6503 7.19206 52.9521 7.49436 53.3255 7.49436C53.6983 7.49436 54.0006 7.19206 54.0006 6.81921C54.0006 5.5884 53.3028 4.47604 52.2219 3.91779C52.0705 1.77597 50.2696 0.0791016 48.0783 0.0791016C45.8165 0.0791016 43.9718 1.88567 43.9244 4.1243C42.1101 4.12945 40.6357 5.59973 40.6357 7.40681C40.6357 7.77966 40.9375 8.08195 41.3104 8.08195Z" fill="#333439"/>
<path d="M0.675165 54.0633H53.3251C53.6979 54.0633 54.0002 53.761 54.0002 53.3887C54.0002 53.0159 53.6979 52.7136 53.3251 52.7136H48.5718V50.3709H53.3251C53.5542 50.3709 53.768 50.2545 53.8921 50.0619C54.0167 49.8693 54.0342 49.6268 53.94 49.4182L51.9264 44.9646H52.2797C52.5104 44.9646 52.7246 44.8467 52.8482 44.6525C52.9723 44.4584 52.9888 44.2143 52.892 44.0052L51.1112 40.1753H51.1735C51.4129 40.1753 51.6334 40.0486 51.7549 39.8426C51.8759 39.6366 51.8795 39.3822 51.7642 39.1731L48.4873 33.2636C48.2489 32.8342 47.5449 32.8342 47.3059 33.2636L44.0291 39.1731C43.9137 39.3822 43.9174 39.6366 44.0384 39.8426C44.1599 40.0486 44.3808 40.1753 44.6198 40.1753H44.6826L42.9023 44.0052C42.805 44.2143 42.8215 44.4584 42.9456 44.6525C43.0697 44.8467 43.2839 44.9646 43.5146 44.9646H43.8679L41.8538 49.4182C41.7596 49.6268 41.7776 49.8693 41.9022 50.0619C42.0258 50.2545 42.2395 50.3709 42.4692 50.3709H47.2215V52.7136H38.8236V22.7884H39.1321C39.5055 22.7884 39.8073 22.4861 39.8073 22.1132V18.2884C39.8073 17.9156 39.5055 17.6133 39.1321 17.6133H14.8676C14.4948 17.6133 14.193 17.9156 14.193 18.2884V22.1132C14.193 22.4861 14.4948 22.7884 14.8676 22.7884H15.1761V52.7136H6.77824V50.3709H11.531C11.7602 50.3709 11.9739 50.2545 12.098 50.0619C12.2227 49.8693 12.2402 49.6268 12.1459 49.4182L10.1323 44.9646H10.4856C10.7163 44.9646 10.9306 44.8467 11.0547 44.6525C11.1783 44.4584 11.1947 44.2143 11.0979 44.0052L9.31711 40.1753H9.37994C9.61941 40.1753 9.84034 40.0486 9.96136 39.8426C10.0829 39.6366 10.086 39.3822 9.97063 39.1731L6.69378 33.2636C6.57482 33.0489 6.34875 32.9155 6.10361 32.9155C5.85797 32.9155 5.63189 33.0489 5.51344 33.2636L2.23608 39.1731C2.1197 39.3822 2.1233 39.6366 2.24432 39.8426C2.36586 40.0486 2.58679 40.1753 2.82574 40.1753H2.88857L1.10827 44.0052C1.01145 44.2143 1.02793 44.4584 1.15153 44.6525C1.27564 44.8467 1.48987 44.9646 1.72058 44.9646H2.07386L0.0597593 49.4182C-0.0344828 49.6268 -0.0164584 49.8693 0.108168 50.0619C0.232279 50.2545 0.445482 50.3709 0.675165 50.3709H5.42847V52.7136H0.675165C0.301802 52.7136 2.1141e-05 53.0159 2.1141e-05 53.3887C2.1141e-05 53.761 0.301802 54.0633 0.675165 54.0633ZM47.8966 34.9827L50.0271 38.8255H45.7661L47.8966 34.9827ZM46.172 40.1753H49.6223L51.2214 43.6143H44.5724L46.172 40.1753ZM45.3495 44.9646H50.4448L52.2791 49.0211H43.5151L45.3495 44.9646ZM6.10361 34.9827L8.23359 38.8255H3.97209L6.10361 34.9827ZM4.3779 40.1753H7.82829L9.42784 43.6143H2.77836L4.3779 40.1753ZM3.55547 44.9646H8.65072L10.4851 49.0211H1.7211L3.55547 44.9646ZM37.4739 44.2848H32.1345V37.2692C32.7566 37.1199 33.2943 36.7681 33.6893 36.2902C34.2228 36.9355 35.0184 37.3562 35.9186 37.3562C36.4918 37.3562 37.0233 37.1842 37.4739 36.8963V44.2848ZM37.4739 34.4512C37.4739 35.3087 36.7761 36.0065 35.9186 36.0065C35.0617 36.0065 34.3644 35.3087 34.3644 34.4512V30.7098H37.4739V34.4512ZM33.0146 34.4512C33.0146 35.3087 32.3168 36.0065 31.4594 36.0065C30.6024 36.0065 29.9052 35.3087 29.9052 34.4512V30.7098H33.0146V34.4512ZM28.5549 34.4512C28.5549 35.3087 27.8576 36.0065 27.0001 36.0065C26.1427 36.0065 25.4449 35.3087 25.4449 34.4512V30.7098H28.5549V34.4512ZM24.0951 34.4512C24.0951 35.3087 23.3978 36.0065 22.5409 36.0065C21.6829 36.0065 20.9856 35.3087 20.9856 34.4512V30.7098H24.0951V34.4512ZM19.6359 34.4512C19.6359 35.3087 18.938 36.0065 18.0811 36.0065C17.2237 36.0065 16.5264 35.3087 16.5264 34.4512V30.7098H19.6359V34.4512ZM16.5264 36.8963C16.977 37.1842 17.5085 37.3562 18.0811 37.3562C18.9813 37.3562 19.7775 36.9355 20.3105 36.2902C20.7127 36.7764 21.2611 37.1338 21.8966 37.2785V44.2848H16.5264V36.8963ZM23.2464 37.2594C23.8551 37.1059 24.3819 36.7604 24.7702 36.2902C25.3033 36.9355 26.0994 37.3562 27.0001 37.3562C27.9008 37.3562 28.6965 36.9355 29.23 36.2902C29.625 36.7681 30.1626 37.1199 30.7842 37.2692V52.7136H23.2464V37.2594ZM32.1345 52.7136V45.6351H37.4739V52.7136H32.1345ZM15.5428 18.9636H38.457V21.4386H15.5428V18.9636ZM37.4739 22.7884V29.3596H16.5264V22.7884H37.4739ZM16.5264 45.6351H21.8966V52.7136H16.5264V45.6351Z" fill="#333439"/>
</g>
<defs>
<clipPath id="clip0_9292_9908">
<rect width="54" height="54" fill="white"/>
</clipPath>
</defs>
</svg>
