<svg width="54" height="54" viewBox="0 0 54 54" fill="none" xmlns="http://www.w3.org/2000/svg">
<path d="M48.0538 15.6082C45.9702 15.6082 44.2748 13.9136 44.2738 11.8303C44.2738 11.5321 44.0317 11.2906 43.7338 11.2906H40.6836V6.4799H48.0575C48.3559 6.4799 48.5975 6.23812 48.5975 5.9399C48.5975 5.64169 48.3559 5.3999 48.0575 5.3999H5.93746C5.63898 5.3999 5.39746 5.64169 5.39746 5.9399C5.39746 6.23812 5.63898 6.4799 5.93746 6.4799H13.3155V11.2906H10.2596C9.96109 11.2906 9.71957 11.5324 9.71957 11.8306C9.71957 13.9149 8.02363 15.6106 5.93957 15.6106C5.64109 15.6106 5.39957 15.8524 5.39957 16.1506V43.7399C5.39957 44.0381 5.64109 44.2799 5.93957 44.2799C8.02363 44.2799 9.71957 45.9756 9.71957 48.0599C9.71957 48.3581 9.96109 48.5999 10.2596 48.5999H43.7491C43.8925 48.5999 44.0296 48.5429 44.1309 48.4417C44.2321 48.3402 44.2891 48.2028 44.2891 48.0596C44.2885 47.0495 44.6814 46.0998 45.3954 45.3855C46.1095 44.6709 47.0592 44.2775 48.0691 44.2775C48.2125 44.2775 48.3496 44.2206 48.4509 44.1193C48.5521 44.0178 48.6091 43.8804 48.6091 43.7373L48.5938 16.148C48.5938 15.8497 48.3517 15.6082 48.0538 15.6082ZM14.3955 6.4799H39.6036V11.2906H14.3955V6.4799ZM44.6313 44.6219C43.8419 45.4118 43.3578 46.4257 43.2381 47.5199H10.7695C10.5201 45.2708 8.72869 43.4794 6.47957 43.2297V16.6608C8.72869 16.4111 10.5201 14.6197 10.7695 12.3706H43.2238C43.4743 14.6187 45.2657 16.4087 47.5143 16.6584L47.5285 43.2271C46.4343 43.3473 45.4213 43.8319 44.6313 44.6219Z" fill="#333439"/>
<path d="M41.3838 26.9669L36.71 25.6834L35.312 21.3515C35.0599 20.1426 33.9878 19.269 32.7502 19.269H19.2444C18.0062 19.269 16.9335 20.1436 16.682 21.3531L15.3958 25.4221C15.3388 25.604 15.1859 25.738 14.9977 25.7717L12.6842 26.1846C11.0178 26.4515 9.80859 27.8695 9.80859 29.5567V34.5317C9.80859 35.8276 10.8628 36.8818 12.159 36.8818H14.2129C14.4798 38.9871 16.2783 40.6215 18.4549 40.6215C20.6315 40.6215 22.4296 38.9871 22.6964 36.8818H30.4793C30.7462 38.9871 32.5443 40.6215 34.7208 40.6215C36.8974 40.6215 38.6955 38.9871 38.9623 36.8818H41.841C43.1372 36.8818 44.1914 35.8276 44.1914 34.5317V30.391C44.1914 28.7441 42.997 27.3008 41.3838 26.9669ZM18.4549 39.5415C16.6904 39.5415 15.255 38.106 15.255 36.3418C15.255 34.5776 16.6904 33.1424 18.4549 33.1424C20.2189 33.1424 21.6543 34.5776 21.6543 36.3418C21.6543 38.106 20.2189 39.5415 18.4549 39.5415ZM34.7208 39.5415C32.9569 39.5415 31.5214 38.106 31.5214 36.3418C31.5214 34.5776 32.9569 33.1424 34.7208 33.1424C36.4848 33.1424 37.9202 34.5776 37.9202 36.3418C37.9202 38.106 36.4848 39.5415 34.7208 39.5415ZM43.1114 34.5317C43.1114 35.232 42.5413 35.8018 41.841 35.8018H38.9623C38.6955 33.6967 36.8974 32.0624 34.7208 32.0624C32.5443 32.0624 30.7462 33.6967 30.4794 35.8018H22.6964C22.4295 33.6967 20.6315 32.0624 18.4549 32.0624C16.2784 32.0624 14.4798 33.6967 14.2129 35.8018H12.159C11.4587 35.8018 10.8886 35.232 10.8886 34.5317V29.5567C10.8886 28.4032 11.7155 27.4334 12.8646 27.2493L15.1875 26.8348C15.7729 26.7304 16.2475 26.3136 16.4257 25.7472L17.7203 21.6511C17.7267 21.6315 17.7319 21.6118 17.7356 21.5917C17.8764 20.8716 18.5108 20.349 19.2444 20.349H32.7502C33.4837 20.349 34.1181 20.8716 34.2589 21.5917C34.2631 21.6128 34.2684 21.6337 34.2747 21.6542L35.7713 26.2927C35.8272 26.466 35.967 26.5994 36.1426 26.6476L41.1312 28.0164C42.2787 28.2547 43.1114 29.2532 43.1114 30.391V34.5317Z" fill="#333439"/>
<path d="M31.9989 23.2382C31.8998 22.8736 31.5633 22.6191 31.1805 22.6191H21.1077C20.7248 22.6191 20.3884 22.8736 20.2892 23.2382L18.9018 28.3493C18.8575 28.5117 18.8918 28.6852 18.9941 28.8189C19.0958 28.9525 19.2546 29.0308 19.4228 29.0308H32.8653C33.0335 29.0308 33.1923 28.9525 33.2941 28.8189C33.3964 28.6852 33.4306 28.5117 33.3863 28.3493L31.9989 23.2382ZM25.6043 27.9508H20.1289L21.2833 23.6991H25.6043V27.9508ZM26.6843 27.9508V23.6991H31.0049L32.1592 27.9508H26.6843Z" fill="#333439"/>
</svg>
