<svg width="54" height="54" viewBox="0 0 54 54" fill="none" xmlns="http://www.w3.org/2000/svg">
<path d="M48.0604 5.3999H5.94039C5.64218 5.3999 5.40039 5.64143 5.40039 5.9399V48.0599C5.40039 48.3584 5.64218 48.5999 5.94039 48.5999H48.0604C48.3586 48.5999 48.6004 48.3584 48.6004 48.0599V5.9399C48.6004 5.64143 48.3586 5.3999 48.0604 5.3999ZM34.0254 47.5199V42.0751C34.0254 41.7766 33.7836 41.5351 33.4854 41.5351C33.1872 41.5351 32.9454 41.7766 32.9454 42.0751V47.5199H6.48039V29.5496H24.9896V33.7905C24.9896 34.089 25.2314 34.3305 25.5296 34.3305C25.8278 34.3305 26.0696 34.089 26.0696 33.7905V29.0096C26.0696 28.7111 25.8278 28.4696 25.5296 28.4696H6.48039V21.119H25.5296C25.8278 21.119 26.0696 20.8774 26.0696 20.579V15.7986C26.0696 15.5001 25.8278 15.2586 25.5296 15.2586C25.2314 15.2586 24.9896 15.5001 24.9896 15.7986V20.039H6.48039V6.4799H24.9896V10.8816C24.9896 11.1801 25.2314 11.4216 25.5296 11.4216C25.8278 11.4216 26.0696 11.1801 26.0696 10.8816V6.4799H32.9454V10.8816C32.9454 11.1801 33.1872 11.4216 33.4854 11.4216C33.7836 11.4216 34.0254 11.1801 34.0254 10.8816V6.4799H47.5204V20.039H34.0254V15.7986C34.0254 15.5001 33.7836 15.2586 33.4854 15.2586C33.1872 15.2586 32.9454 15.5001 32.9454 15.7986V29.0096C32.9454 29.3081 33.1872 29.5496 33.4854 29.5496C33.7836 29.5496 34.0254 29.3081 34.0254 29.0096V21.119H47.5204V33.7757H33.4854C33.1872 33.7757 32.9454 34.0173 32.9454 34.3157V37.7656C32.9454 38.0641 33.1872 38.3056 33.4854 38.3056C33.7836 38.3056 34.0254 38.0641 34.0254 37.7656V34.8557H47.5204V47.5199H34.0254Z" fill="#333439"/>
</svg>
