<svg width="54" height="54" viewBox="0 0 54 54" fill="none" xmlns="http://www.w3.org/2000/svg">
<g clip-path="url(#clip0_9307_17807)">
<path d="M25.0512 19.9771H21.8285C21.4556 19.9771 21.1533 20.2788 21.1533 20.6522V26.7141C21.1533 27.0869 21.4556 27.3887 21.8285 27.3887H25.0512C25.4246 27.3887 25.7264 27.0869 25.7264 26.7141V20.6522C25.7264 20.2788 25.4246 19.9771 25.0512 19.9771ZM24.3761 26.0389H22.5036V21.3268H24.3761V26.0389Z" fill="#EAD587"/>
<path d="M31.1396 19.9771H27.9168C27.544 19.9771 27.2422 20.2788 27.2422 20.6522V26.7141C27.2422 27.0869 27.544 27.3887 27.9168 27.3887H31.1396C31.5129 27.3887 31.8147 27.0869 31.8147 26.7141V20.6522C31.8147 20.2788 31.5129 19.9771 31.1396 19.9771ZM30.4644 26.0389H28.592V21.3268H30.4644V26.0389Z" fill="#EAD587"/>
<path d="M25.0512 29.6768H21.8285C21.4556 29.6768 21.1533 29.9785 21.1533 30.3519V36.4143C21.1533 36.7876 21.4556 37.0894 21.8285 37.0894H25.0512C25.4246 37.0894 25.7264 36.7876 25.7264 36.4143V30.3519C25.7264 29.9785 25.4246 29.6768 25.0512 29.6768ZM24.3761 35.7391H22.5036V31.027H24.3761V35.7391Z" fill="#EAD587"/>
<path d="M31.1396 29.6768H27.9168C27.544 29.6768 27.2422 29.9785 27.2422 30.3519V36.4143C27.2422 36.7876 27.544 37.0894 27.9168 37.0894H31.1396C31.5129 37.0894 31.8147 36.7876 31.8147 36.4143V30.3519C31.8147 29.9785 31.5129 29.6768 31.1396 29.6768ZM30.4644 35.7391H28.592V31.027H30.4644V35.7391Z" fill="#EAD587"/>
<path d="M25.0512 39.3765H21.8285C21.4556 39.3765 21.1533 39.6788 21.1533 40.0516V46.114C21.1533 46.4874 21.4556 46.7891 21.8285 46.7891H25.0512C25.4246 46.7891 25.7264 46.4874 25.7264 46.114V40.0516C25.7264 39.6788 25.4246 39.3765 25.0512 39.3765ZM24.3761 45.4394H22.5036V40.7268H24.3761V45.4394Z" fill="#EAD587"/>
<path d="M31.1396 39.3765H27.9168C27.544 39.3765 27.2422 39.6788 27.2422 40.0516V46.114C27.2422 46.4874 27.544 46.7891 27.9168 46.7891H31.1396C31.5129 46.7891 31.8147 46.4874 31.8147 46.114V40.0516C31.8147 39.6788 31.5129 39.3765 31.1396 39.3765ZM30.4644 45.4394H28.592V40.7268H30.4644V45.4394Z" fill="#EAD587"/>
<path d="M43.8402 22.7275H40.8919C40.5186 22.7275 40.2168 23.0298 40.2168 23.4027V28.9491C40.2168 29.3224 40.5186 29.6242 40.8919 29.6242H43.8402C44.2136 29.6242 44.5154 29.3224 44.5154 28.9491V23.4027C44.5154 23.0298 44.2136 22.7275 43.8402 22.7275ZM43.1656 28.2739H41.5671V24.0778H43.1656V28.2739Z" fill="#EAD587"/>
<path d="M49.411 22.7275H46.4623C46.0889 22.7275 45.7871 23.0298 45.7871 23.4027V28.9491C45.7871 29.3224 46.0889 29.6242 46.4623 29.6242H49.411C49.7844 29.6242 50.0862 29.3224 50.0862 28.9491V23.4027C50.0862 23.0298 49.7844 22.7275 49.411 22.7275ZM48.7364 28.2739H47.1369V24.0778H48.7364V28.2739Z" fill="#EAD587"/>
<path d="M43.8402 31.6021H40.8919C40.5186 31.6021 40.2168 31.9038 40.2168 32.2767V37.823C40.2168 38.1964 40.5186 38.4982 40.8919 38.4982H43.8402C44.2136 38.4982 44.5154 38.1964 44.5154 37.823V32.2767C44.5154 31.9038 44.2136 31.6021 43.8402 31.6021ZM43.1656 37.1484H41.5671V32.9518H43.1656V37.1484Z" fill="#EAD587"/>
<path d="M49.411 31.6021H46.4623C46.0889 31.6021 45.7871 31.9038 45.7871 32.2767V37.823C45.7871 38.1964 46.0889 38.4982 46.4623 38.4982H49.411C49.7844 38.4982 50.0862 38.1964 50.0862 37.823V32.2767C50.0862 31.9038 49.7844 31.6021 49.411 31.6021ZM48.7364 37.1484H47.1369V32.9518H48.7364V37.1484Z" fill="#EAD587"/>
<path d="M43.8402 40.4761H40.8919C40.5186 40.4761 40.2168 40.7784 40.2168 41.1512V46.6976C40.2168 47.071 40.5186 47.3727 40.8919 47.3727H43.8402C44.2136 47.3727 44.5154 47.071 44.5154 46.6976V41.1512C44.5154 40.7784 44.2136 40.4761 43.8402 40.4761ZM43.1656 46.0224H41.5671V41.8264H43.1656V46.0224Z" fill="#EAD587"/>
<path d="M49.411 40.4761H46.4623C46.0889 40.4761 45.7871 40.7784 45.7871 41.1512V46.6976C45.7871 47.071 46.0889 47.3727 46.4623 47.3727H49.411C49.7844 47.3727 50.0862 47.071 50.0862 46.6976V41.1512C50.0862 40.7784 49.7844 40.4761 49.411 40.4761ZM48.7364 46.0224H47.1369V41.8264H48.7364V46.0224Z" fill="#EAD587"/>
<path d="M53.325 52.714H52.8326V22.8244C53.087 23.0968 53.5129 23.1112 53.7849 22.8568C54.0578 22.6024 54.0732 22.1755 53.8188 21.9031L45.645 13.1386C45.3891 12.8646 44.9132 12.8646 44.6573 13.1386L36.484 21.9031C36.2296 22.1755 36.245 22.6024 36.518 22.8568C36.6478 22.9784 36.8131 23.0381 36.9779 23.0381C37.1576 23.0381 37.3368 22.9665 37.4697 22.8249V52.714H34.818V19.8612L34.9246 19.9755C35.058 20.1187 35.2377 20.1908 35.4185 20.1908C35.5833 20.1908 35.7486 20.1305 35.8784 20.0095C36.1513 19.7551 36.1662 19.3276 35.9118 19.0557L26.9774 9.4755C26.722 9.20153 26.2456 9.20153 25.9902 9.4755L17.0562 19.0557C16.8018 19.3276 16.8168 19.7551 17.0897 20.0095C17.3621 20.2639 17.7901 20.2495 18.0435 19.9755L18.1506 19.8612V52.714H8.524V49.81H14.1785C14.4077 49.81 14.6214 49.6936 14.745 49.501C14.8696 49.3084 14.8877 49.0659 14.7934 48.8568L12.3735 43.5056H12.9596C13.1903 43.5056 13.4045 43.3882 13.5281 43.194C13.6522 42.9994 13.6687 42.7547 13.5719 42.5462L11.4208 37.9206H11.6695C11.9085 37.9206 12.1294 37.7939 12.2509 37.5884C12.372 37.3819 12.3756 37.1275 12.2602 36.9179L8.43955 30.0269C8.32007 29.8127 8.09399 29.6793 7.84886 29.6793C7.60373 29.6793 7.37765 29.8127 7.25817 30.0269L3.437 36.9179C3.32164 37.1275 3.32473 37.3819 3.44627 37.5884C3.56729 37.7939 3.78822 37.9206 4.02768 37.9206H4.27642L2.12585 42.5462C2.02903 42.7547 2.04551 42.9994 2.16911 43.194C2.29322 43.3882 2.50745 43.5056 2.73817 43.5056H3.3237L0.903796 48.8568C0.809554 49.0659 0.827063 49.3084 0.951689 49.501C1.0758 49.6936 1.28952 49.81 1.51869 49.81H7.17372V52.714H0.675143C0.30178 52.714 0 53.0158 0 53.3886C0 53.762 0.30178 54.0638 0.675143 54.0638H53.325C53.6978 54.0638 54.0001 53.762 54.0001 53.3886C54.0001 53.0158 53.6978 52.714 53.325 52.714ZM7.84886 31.7465L10.5232 36.5703H5.3584C5.35789 36.5703 5.35789 36.5703 5.35737 36.5703H5.17404L7.84886 31.7465ZM5.76575 37.9206H9.93145L11.9013 42.1558H3.79646L5.76575 37.9206ZM4.80531 43.5056H10.8919L13.1321 48.4602H2.56462L4.80531 43.5056ZM38.8194 21.3778L45.1512 14.5883L51.4824 21.3773V52.714H38.8194V21.3778ZM19.5004 18.4135L26.484 10.9252L33.4677 18.4135V52.714H19.5004V18.4135Z" fill="#EAD587"/>
<path d="M17.5856 5.00183C18.3684 5.27116 18.8947 6.00192 18.8947 6.8192C18.8947 7.19205 19.1965 7.49435 19.5699 7.49435H23.5373C23.9102 7.49435 24.2125 7.19205 24.2125 6.8192C24.2125 6.44584 23.9102 6.14406 23.5373 6.14406H20.1734C19.9716 5.1934 19.35 4.37406 18.4776 3.91985C18.3272 1.77649 16.5356 0.0791016 14.3552 0.0791016C12.1052 0.0791016 10.2693 1.88566 10.2224 4.12533C8.5616 4.13253 7.20307 5.38446 6.99708 6.99172C4.9356 7.19205 3.31289 8.91364 3.26808 11.0168C1.46461 11.024 0 12.4933 0 14.2988C0 14.6722 0.30178 14.974 0.675143 14.974C1.04799 14.974 1.34977 14.6722 1.34977 14.2988C1.34977 13.2338 2.217 12.3666 3.28199 12.3666C3.44472 12.3666 3.61673 12.3949 3.82272 12.4562C4.05137 12.5242 4.29651 12.467 4.47108 12.3063C4.64566 12.1462 4.72343 11.9052 4.67553 11.6734C4.63742 11.486 4.61734 11.2949 4.61734 11.1044C4.61734 9.56973 5.86617 8.32141 7.39979 8.32141C8.93444 8.32141 10.1828 9.56973 10.1828 11.1044L10.1756 11.2197C10.1601 11.521 10.346 11.796 10.6308 11.8933C11.4136 12.1632 11.9399 12.8934 11.9399 13.7117C11.9399 14.0846 12.2417 14.3864 12.6145 14.3864H16.5825C16.9553 14.3864 17.2571 14.0846 17.2571 13.7117C17.2571 13.3384 16.9553 13.0366 16.5825 13.0366H13.2191C13.0167 12.0854 12.3951 11.2661 11.5222 10.8119C11.3945 8.98625 10.0736 7.48817 8.33758 7.08339C8.4931 6.17238 9.28257 5.4751 10.2368 5.4751C10.3991 5.4751 10.5711 5.50342 10.7796 5.5647C11.0078 5.62908 11.2524 5.57397 11.427 5.4133C11.601 5.25314 11.6778 5.01316 11.6304 4.7809C11.5918 4.5919 11.5717 4.39981 11.5717 4.21184C11.5717 2.67771 12.8205 1.42887 14.3552 1.42887C15.8893 1.42887 17.1381 2.67771 17.1356 4.25562C17.1345 4.26283 17.1309 4.33029 17.1309 4.3375C17.1191 4.63516 17.304 4.90501 17.5856 5.00183Z" fill="#EAD587"/>
<path d="M53.3246 6.14406H49.9608C49.7589 5.1934 49.1373 4.37406 48.2649 3.91985C48.1146 1.77649 46.3229 0.0791016 44.142 0.0791016C41.8925 0.0791016 40.0566 1.88566 40.0098 4.12532C38.2068 4.13305 36.7422 5.6023 36.7422 7.40731C36.7422 7.78016 37.044 8.08194 37.4173 8.08194C37.7902 8.08194 38.0925 7.78016 38.0925 7.40731C38.0925 6.34181 38.9592 5.4751 40.0242 5.4751C40.1864 5.4751 40.3584 5.50342 40.567 5.5647C40.7956 5.62908 41.0402 5.57346 41.2148 5.41227C41.3889 5.25159 41.4661 5.0111 41.4172 4.77884C41.3791 4.59396 41.359 4.40239 41.359 4.21184C41.359 2.67771 42.6078 1.42887 44.142 1.42887C45.6766 1.42887 46.9255 2.67771 46.9229 4.25562C46.9219 4.26283 46.9183 4.33029 46.9183 4.3375C46.9064 4.63516 47.0913 4.90501 47.373 5.00183C48.1558 5.27116 48.6821 6.00192 48.6821 6.8192C48.6821 7.19205 48.9839 7.49434 49.3572 7.49434H53.3246C53.6975 7.49434 53.9998 7.19205 53.9998 6.8192C53.9998 6.44584 53.6975 6.14406 53.3246 6.14406Z" fill="#EAD587"/>
</g>
<defs>
<clipPath id="clip0_9307_17807">
<rect width="54" height="54" fill="white"/>
</clipPath>
</defs>
</svg>
