<svg width="100" height="100" viewBox="0 0 100 100" fill="none" xmlns="http://www.w3.org/2000/svg">
<rect x="0.5" y="0.5" width="99" height="99" stroke="#EAD587" stroke-opacity="0.3"/>
<g clip-path="url(#clip0_8246_4362)">
<path d="M48.0515 42.9773H44.8287C44.4559 42.9773 44.1536 43.2791 44.1536 43.6524V49.7143C44.1536 50.0872 44.4559 50.3889 44.8287 50.3889H48.0515C48.4248 50.3889 48.7266 50.0872 48.7266 49.7143V43.6524C48.7266 43.2791 48.4248 42.9773 48.0515 42.9773ZM47.3763 49.0392H45.5039V44.3271H47.3763V49.0392Z" fill="#EAD587"/>
<path d="M54.1396 42.9773H50.9168C50.544 42.9773 50.2422 43.2791 50.2422 43.6524V49.7143C50.2422 50.0872 50.544 50.3889 50.9168 50.3889H54.1396C54.5129 50.3889 54.8147 50.0872 54.8147 49.7143V43.6524C54.8147 43.2791 54.5129 42.9773 54.1396 42.9773ZM53.4644 49.0392H51.592V44.3271H53.4644V49.0392Z" fill="#EAD587"/>
<path d="M48.0515 52.677H44.8287C44.4559 52.677 44.1536 52.9788 44.1536 53.3521V59.4145C44.1536 59.7879 44.4559 60.0897 44.8287 60.0897H48.0515C48.4248 60.0897 48.7266 59.7879 48.7266 59.4145V53.3521C48.7266 52.9788 48.4248 52.677 48.0515 52.677ZM47.3763 58.7394H45.5039V54.0273H47.3763V58.7394Z" fill="#EAD587"/>
<path d="M54.1396 52.677H50.9168C50.544 52.677 50.2422 52.9788 50.2422 53.3521V59.4145C50.2422 59.7879 50.544 60.0897 50.9168 60.0897H54.1396C54.5129 60.0897 54.8147 59.7879 54.8147 59.4145V53.3521C54.8147 52.9788 54.5129 52.677 54.1396 52.677ZM53.4644 58.7394H51.592V54.0273H53.4644V58.7394Z" fill="#EAD587"/>
<path d="M48.0515 62.3767H44.8287C44.4559 62.3767 44.1536 62.679 44.1536 63.0519V69.1142C44.1536 69.4876 44.4559 69.7894 44.8287 69.7894H48.0515C48.4248 69.7894 48.7266 69.4876 48.7266 69.1142V63.0519C48.7266 62.679 48.4248 62.3767 48.0515 62.3767ZM47.3763 68.4396H45.5039V63.727H47.3763V68.4396Z" fill="#EAD587"/>
<path d="M54.1396 62.3767H50.9168C50.544 62.3767 50.2422 62.679 50.2422 63.0519V69.1142C50.2422 69.4876 50.544 69.7894 50.9168 69.7894H54.1396C54.5129 69.7894 54.8147 69.4876 54.8147 69.1142V63.0519C54.8147 62.679 54.5129 62.3767 54.1396 62.3767ZM53.4644 68.4396H51.592V63.727H53.4644V68.4396Z" fill="#EAD587"/>
<path d="M66.8405 45.7278H63.8922C63.5188 45.7278 63.217 46.0301 63.217 46.4029V51.9493C63.217 52.3227 63.5188 52.6244 63.8922 52.6244H66.8405C67.2138 52.6244 67.5156 52.3227 67.5156 51.9493V46.4029C67.5156 46.0301 67.2138 45.7278 66.8405 45.7278ZM66.1658 51.2742H64.5673V47.0781H66.1658V51.2742Z" fill="#EAD587"/>
<path d="M72.4106 45.7278H69.4618C69.0884 45.7278 68.7866 46.0301 68.7866 46.4029V51.9493C68.7866 52.3227 69.0884 52.6244 69.4618 52.6244H72.4106C72.7839 52.6244 73.0857 52.3227 73.0857 51.9493V46.4029C73.0857 46.0301 72.7839 45.7278 72.4106 45.7278ZM71.7359 51.2742H70.1364V47.0781H71.7359V51.2742Z" fill="#EAD587"/>
<path d="M66.8405 54.6018H63.8922C63.5188 54.6018 63.217 54.9036 63.217 55.2764V60.8228C63.217 61.1962 63.5188 61.4979 63.8922 61.4979H66.8405C67.2138 61.4979 67.5156 61.1962 67.5156 60.8228V55.2764C67.5156 54.9036 67.2138 54.6018 66.8405 54.6018ZM66.1658 60.1482H64.5673V55.9516H66.1658V60.1482Z" fill="#EAD587"/>
<path d="M72.4106 54.6018H69.4618C69.0884 54.6018 68.7866 54.9036 68.7866 55.2764V60.8228C68.7866 61.1962 69.0884 61.4979 69.4618 61.4979H72.4106C72.7839 61.4979 73.0857 61.1962 73.0857 60.8228V55.2764C73.0857 54.9036 72.7839 54.6018 72.4106 54.6018ZM71.7359 60.1482H70.1364V55.9516H71.7359V60.1482Z" fill="#EAD587"/>
<path d="M66.8405 63.4761H63.8922C63.5188 63.4761 63.217 63.7784 63.217 64.1512V69.6976C63.217 70.071 63.5188 70.3727 63.8922 70.3727H66.8405C67.2138 70.3727 67.5156 70.071 67.5156 69.6976V64.1512C67.5156 63.7784 67.2138 63.4761 66.8405 63.4761ZM66.1658 69.0224H64.5673V64.8264H66.1658V69.0224Z" fill="#EAD587"/>
<path d="M72.4106 63.4761H69.4618C69.0884 63.4761 68.7866 63.7784 68.7866 64.1512V69.6976C68.7866 70.071 69.0884 70.3727 69.4618 70.3727H72.4106C72.7839 70.3727 73.0857 70.071 73.0857 69.6976V64.1512C73.0857 63.7784 72.7839 63.4761 72.4106 63.4761ZM71.7359 69.0224H70.1364V64.8264H71.7359V69.0224Z" fill="#EAD587"/>
<path d="M76.325 75.7143H75.8326V45.8246C76.087 46.097 76.5129 46.1115 76.7849 45.8571C77.0578 45.6027 77.0732 45.1757 76.8188 44.9033L68.645 36.1388C68.3891 35.8648 67.9132 35.8648 67.6573 36.1388L59.484 44.9033C59.2296 45.1757 59.245 45.6027 59.518 45.8571C59.6478 45.9786 59.8131 46.0383 59.9779 46.0383C60.1576 46.0383 60.3368 45.9668 60.4697 45.8251V75.7143H57.818V42.8614L57.9246 42.9757C58.058 43.1189 58.2377 43.191 58.4185 43.191C58.5833 43.191 58.7486 43.1307 58.8784 43.0097C59.1513 42.7553 59.1662 42.3279 58.9118 42.056L49.9774 32.4757C49.722 32.2018 49.2456 32.2018 48.9902 32.4757L40.0562 42.056C39.8018 42.3279 39.8168 42.7553 40.0897 43.0097C40.3621 43.2641 40.7901 43.2497 41.0435 42.9757L41.1506 42.8614V75.7143H31.524V72.8103H37.1785C37.4077 72.8103 37.6214 72.6939 37.745 72.5013C37.8696 72.3087 37.8877 72.0661 37.7934 71.857L35.3735 66.5058H35.9596C36.1903 66.5058 36.4045 66.3884 36.5281 66.1943C36.6522 65.9996 36.6687 65.755 36.5719 65.5464L34.4208 60.9208H34.6695C34.9085 60.9208 35.1294 60.7942 35.2509 60.5887C35.372 60.3822 35.3756 60.1278 35.2602 59.9182L31.4395 53.0272C31.3201 52.8129 31.094 52.6796 30.8489 52.6796C30.6037 52.6796 30.3777 52.8129 30.2582 53.0272L26.437 59.9182C26.3216 60.1278 26.3247 60.3822 26.4463 60.5887C26.5673 60.7942 26.7882 60.9208 27.0277 60.9208H27.2764L25.1259 65.5464C25.029 65.755 25.0455 65.9996 25.1691 66.1943C25.2932 66.3884 25.5075 66.5058 25.7382 66.5058H26.3237L23.9038 71.857C23.8096 72.0661 23.8271 72.3087 23.9517 72.5013C24.0758 72.6939 24.2895 72.8103 24.5187 72.8103H30.1737V75.7143H23.6751C23.3018 75.7143 23 76.016 23 76.3889C23 76.7622 23.3018 77.064 23.6751 77.064H76.325C76.6978 77.064 77.0001 76.7622 77.0001 76.3889C77.0001 76.016 76.6978 75.7143 76.325 75.7143ZM30.8489 54.7467L33.5232 59.5706H28.3584C28.3579 59.5706 28.3579 59.5706 28.3574 59.5706H28.174L30.8489 54.7467ZM28.7658 60.9208H32.9315L34.9013 65.1561H26.7965L28.7658 60.9208ZM27.8053 66.5058H33.8919L36.1321 71.4605H25.5646L27.8053 66.5058ZM61.8194 44.378L68.1512 37.5885L74.4824 44.3775V75.7143H61.8194V44.378ZM42.5004 41.4138L49.484 33.9254L56.4677 41.4138V75.7143H42.5004V41.4138Z" fill="#EAD587"/>
<path d="M40.5856 28.0021C41.3684 28.2714 41.8947 29.0022 41.8947 29.8194C41.8947 30.1923 42.1965 30.4946 42.5699 30.4946H46.5373C46.9102 30.4946 47.2125 30.1923 47.2125 29.8194C47.2125 29.4461 46.9102 29.1443 46.5373 29.1443H43.1734C42.9716 28.1936 42.35 27.3743 41.4776 26.9201C41.3272 24.7767 39.5356 23.0793 37.3552 23.0793C35.1052 23.0793 33.2693 24.8859 33.2224 27.1256C31.5616 27.1328 30.2031 28.3847 29.9971 29.992C27.9356 30.1923 26.3129 31.9139 26.2681 34.0171C24.4646 34.0243 23 35.4935 23 37.2991C23 37.6724 23.3018 37.9742 23.6751 37.9742C24.048 37.9742 24.3498 37.6724 24.3498 37.2991C24.3498 36.2341 25.217 35.3668 26.282 35.3668C26.4447 35.3668 26.6167 35.3952 26.8227 35.4565C27.0514 35.5244 27.2965 35.4673 27.4711 35.3066C27.6457 35.1464 27.7234 34.9054 27.6755 34.6737C27.6374 34.4862 27.6173 34.2952 27.6173 34.1046C27.6173 32.57 28.8662 31.3217 30.3998 31.3217C31.9344 31.3217 33.1828 32.57 33.1828 34.1046L33.1756 34.22C33.1601 34.5212 33.346 34.7962 33.6308 34.8936C34.4136 35.1634 34.9399 35.8937 34.9399 36.712C34.9399 37.0848 35.2417 37.3866 35.6145 37.3866H39.5825C39.9553 37.3866 40.2571 37.0848 40.2571 36.712C40.2571 36.3386 39.9553 36.0368 39.5825 36.0368H36.2191C36.0167 35.0857 35.3951 34.2663 34.5222 33.8121C34.3945 31.9865 33.0736 30.4884 31.3376 30.0836C31.4931 29.1726 32.2826 28.4753 33.2368 28.4753C33.3991 28.4753 33.5711 28.5037 33.7796 28.5649C34.0078 28.6293 34.2524 28.5742 34.427 28.4135C34.601 28.2534 34.6778 28.0134 34.6304 27.7811C34.5918 27.5921 34.5717 27.4001 34.5717 27.2121C34.5717 25.678 35.8205 24.4291 37.3552 24.4291C38.8893 24.4291 40.1381 25.678 40.1356 27.2559C40.1345 27.2631 40.1309 27.3305 40.1309 27.3377C40.1191 27.6354 40.304 27.9053 40.5856 28.0021Z" fill="#EAD587"/>
<path d="M76.3249 29.1443H72.961C72.7591 28.1936 72.1376 27.3743 71.2652 26.9201C71.1148 24.7767 69.3232 23.0793 67.1422 23.0793C64.8928 23.0793 63.0569 24.8859 63.01 27.1256C61.207 27.1333 59.7424 28.6025 59.7424 30.4076C59.7424 30.7804 60.0442 31.0822 60.4176 31.0822C60.7904 31.0822 61.0927 30.7804 61.0927 30.4076C61.0927 29.3421 61.9594 28.4753 63.0244 28.4753C63.1866 28.4753 63.3586 28.5037 63.5672 28.5649C63.7959 28.6293 64.0405 28.5737 64.2151 28.4125C64.3891 28.2518 64.4664 28.0113 64.4174 27.7791C64.3793 27.5942 64.3593 27.4026 64.3593 27.2121C64.3593 25.678 65.6081 24.4291 67.1422 24.4291C68.6769 24.4291 69.9257 25.678 69.9231 27.2559C69.9221 27.2631 69.9185 27.3305 69.9185 27.3377C69.9067 27.6354 70.0915 27.9053 70.3732 28.0021C71.156 28.2714 71.6823 29.0022 71.6823 29.8194C71.6823 30.1923 71.9841 30.4946 72.3575 30.4946H76.3249C76.6977 30.4946 77 30.1923 77 29.8194C77 29.4461 76.6977 29.1443 76.3249 29.1443Z" fill="#EAD587"/>
</g>
<defs>
<clipPath id="clip0_8246_4362">
<rect width="54" height="54" fill="white" transform="translate(23 23)"/>
</clipPath>
</defs>
</svg>
