<svg width="54" height="54" viewBox="0 0 54 54" fill="none" xmlns="http://www.w3.org/2000/svg">
<path d="M26.9662 39.0977C31.4083 39.0977 35.8509 37.4071 39.2325 34.025C45.9968 27.2608 45.9968 16.255 39.2325 9.49076C32.4688 2.72652 21.463 2.72755 14.6988 9.49076C7.93505 16.255 7.93505 27.2608 14.6988 34.025C18.0809 37.4071 22.5235 39.0977 26.9662 39.0977ZM15.6546 10.4466C21.8925 4.20981 32.0404 4.20929 38.2772 10.4466C44.514 16.6839 44.514 26.8318 38.2772 33.0692C32.0399 39.3065 21.8914 39.306 15.6546 33.0692C9.41782 26.8318 9.41782 16.6839 15.6546 10.4466Z" fill="white"/>
<path d="M3.18042 45.1069L12.9844 45.4018L17.3858 53.5988C17.5008 53.8127 17.722 53.9488 17.9653 53.9545H17.9813C18.2185 53.9545 18.4386 53.8303 18.5608 53.6261L24.6863 43.3931C25.4436 43.472 26.2046 43.5153 26.9656 43.5153C27.8049 43.5153 28.6437 43.4612 29.479 43.3648L35.6482 53.6715C35.7704 53.8756 35.9906 53.9999 36.2282 53.9999C36.2334 53.9999 36.2386 53.9999 36.2437 53.9994C36.4871 53.9942 36.7082 53.8581 36.8232 53.6441L41.2246 45.4471L51.0281 45.1522C51.2678 45.1445 51.4854 45.011 51.6009 44.8011C51.7154 44.5908 51.7107 44.3351 51.5875 44.1293L45.2574 33.554C50.6945 25.1266 49.7304 13.7388 42.3573 6.36564C33.8706 -2.12162 20.0606 -2.12214 11.5733 6.36564C7.46169 10.4768 5.19732 15.9433 5.19732 21.7579C5.19732 26.0917 6.45685 30.2317 8.80062 33.7618L2.62155 44.084C2.49833 44.2897 2.49317 44.5454 2.60815 44.7558C2.72312 44.9661 2.9412 45.0996 3.18042 45.1069ZM49.8366 43.836L40.7936 44.1082C40.5518 44.1154 40.3327 44.251 40.2187 44.4634L36.1963 51.9551L30.9262 43.1513C35.1167 42.3816 39.1237 40.3838 42.3573 37.1496C43.11 36.3974 43.7921 35.6014 44.4113 34.7723L49.8366 43.836ZM12.5287 7.32098C16.5094 3.34132 21.7372 1.35124 26.9656 1.35124C32.1934 1.35124 37.4218 3.34132 41.402 7.32098C49.3623 15.2813 49.3623 28.2339 41.402 36.1943C33.4411 44.1541 20.4895 44.1541 12.5287 36.1943C8.67276 32.3378 6.54914 27.211 6.54914 21.7579C6.54914 16.3042 8.67276 11.1774 12.5287 7.32098ZM9.65955 34.9585C10.2452 35.723 10.8804 36.4572 11.5733 37.1496C14.8657 40.442 18.9599 42.4517 23.2329 43.1895L18.0133 51.9098L13.9903 44.4186C13.8764 44.2057 13.6573 44.0701 13.416 44.0628L4.37241 43.7906L9.65955 34.9585Z" fill="white"/>
<path d="M26.9659 26.529C29.5963 26.529 31.737 24.3883 31.737 21.7579C31.737 19.127 29.5963 16.9863 26.9659 16.9863C24.335 16.9863 22.1943 19.127 22.1943 21.7579C22.1943 24.3883 24.335 26.529 26.9659 26.529ZM26.9659 18.3381C28.8513 18.3381 30.3857 19.872 30.3857 21.7579C30.3857 23.6433 28.8513 25.1771 26.9659 25.1771C25.08 25.1771 23.5462 23.6433 23.5462 21.7579C23.5462 19.872 25.08 18.3381 26.9659 18.3381Z" fill="white"/>
<path d="M17.6356 23.0826C17.4449 23.1027 17.2717 23.2032 17.1587 23.3584C17.0464 23.5136 17.0051 23.709 17.0453 23.8967C17.3026 25.0943 17.7718 26.2255 18.4399 27.2592C18.5441 27.42 18.7116 27.5293 18.9003 27.5598C19.0911 27.5912 19.2829 27.5386 19.4319 27.418C19.9629 26.989 20.7275 27.0303 21.2106 27.5134C21.6937 27.997 21.7349 28.761 21.306 29.2915C21.1853 29.4405 21.1343 29.6339 21.1642 29.8226C21.1946 30.0123 21.3039 30.1794 21.4648 30.2835C22.4985 30.9522 23.6296 31.4214 24.8268 31.6781C24.8742 31.6884 24.9216 31.6936 24.9691 31.6936C25.1103 31.6936 25.2495 31.6492 25.3655 31.5647C25.5207 31.4523 25.6207 31.2791 25.6408 31.0883C25.7125 30.4093 26.2822 29.8979 26.9664 29.8979C27.65 29.8979 28.2197 30.4093 28.2909 31.0883C28.311 31.2791 28.4115 31.4523 28.5667 31.5647C28.7214 31.6776 28.9173 31.7199 29.1049 31.6781C30.3026 31.4214 31.4338 30.9522 32.4675 30.2835C32.6288 30.1794 32.7376 30.0123 32.768 29.8226C32.7985 29.6339 32.7469 29.4405 32.6263 29.2915C32.1973 28.761 32.2386 27.997 32.7216 27.5134C33.2052 27.0303 33.9698 26.989 34.4998 27.418C34.6483 27.5381 34.8422 27.5907 35.0309 27.5598C35.2206 27.5293 35.3876 27.4206 35.4923 27.2592C36.1605 26.2255 36.6296 25.0943 36.8864 23.8967C36.9266 23.709 36.8854 23.5131 36.773 23.3584C36.6606 23.2027 36.4873 23.1027 36.2966 23.0826C35.6176 23.0114 35.1056 22.4417 35.1056 21.7581C35.1056 21.0739 35.6176 20.5042 36.2966 20.4331C36.4873 20.413 36.6606 20.313 36.773 20.1578C36.8854 20.0026 36.9266 19.8067 36.8864 19.619C36.6296 18.4213 36.1605 17.2902 35.4923 16.2565C35.3876 16.0951 35.2206 15.9863 35.0309 15.9559C34.8447 15.925 34.6488 15.9776 34.4998 16.0977C33.9698 16.5261 33.2052 16.4859 32.7216 16.0023C32.2386 15.5187 32.1973 14.7546 32.6263 14.2241C32.7469 14.0751 32.7985 13.8818 32.768 13.6931C32.7376 13.5033 32.6288 13.3363 32.4675 13.2322C31.4338 12.5635 30.3026 12.0943 29.1049 11.8376C28.9157 11.7958 28.7214 11.8381 28.5667 11.951C28.4115 12.0634 28.311 12.2366 28.2909 12.4274C28.2197 13.1064 27.65 13.6178 26.9664 13.6178C26.2822 13.6178 25.7125 13.1064 25.6408 12.4274C25.6207 12.2366 25.5207 12.0634 25.3655 11.951C25.2104 11.8386 25.016 11.7973 24.8268 11.8376C23.6296 12.0943 22.4985 12.5635 21.4648 13.2322C21.3039 13.3363 21.1946 13.5033 21.1642 13.6931C21.1343 13.8818 21.1853 14.0751 21.306 14.2241C21.7349 14.7546 21.6937 15.5187 21.2106 16.0023C20.7275 16.4859 19.9629 16.5261 19.4319 16.0977C19.2829 15.9776 19.0911 15.925 18.9003 15.9559C18.7116 15.9863 18.5441 16.0956 18.4399 16.2565C17.7718 17.2902 17.3026 18.4213 17.0453 19.619C17.0051 19.8067 17.0464 20.0021 17.1587 20.1578C17.2717 20.3124 17.4449 20.413 17.6356 20.4331C18.3141 20.5042 18.8261 21.0739 18.8261 21.7581C18.8261 22.4417 18.3141 23.0114 17.6356 23.0826ZM20.1779 21.7581C20.1779 20.6455 19.5051 19.6834 18.525 19.2782C18.7018 18.6755 18.9426 18.0955 19.2452 17.5433C20.2243 17.948 21.3802 17.7434 22.1659 16.9576C22.9522 16.1719 23.1568 15.016 22.7516 14.037C23.3038 13.7343 23.8838 13.4936 24.486 13.3172C24.8912 14.2968 25.8538 14.9696 26.9664 14.9696C28.0784 14.9696 29.0405 14.2968 29.4457 13.3172C30.0479 13.4936 30.6284 13.7343 31.1806 14.037C30.7754 15.016 30.9801 16.1719 31.7663 16.9576C32.552 17.7444 33.7079 17.9506 34.687 17.5433C34.9896 18.0955 35.2304 18.6755 35.4067 19.2782C34.4271 19.6834 33.7543 20.6455 33.7543 21.7581C33.7543 22.8702 34.4271 23.8322 35.4067 24.2374C35.2304 24.8401 34.9896 25.4202 34.687 25.9723C33.7079 25.5666 32.552 25.7723 31.7663 26.558C30.9801 27.3437 30.7754 28.4996 31.1806 29.4787C30.6284 29.7813 30.0479 30.0221 29.4457 30.1984C29.0405 29.2189 28.0784 28.546 26.9664 28.546C25.8538 28.546 24.8912 29.2189 24.486 30.1984C23.8838 30.0221 23.3038 29.7813 22.7516 29.4787C23.1568 28.4996 22.9522 27.3437 22.1659 26.558C21.3802 25.7713 20.2233 25.5676 19.2452 25.9723C18.9426 25.4202 18.7018 24.8401 18.525 24.2374C19.5051 23.8322 20.1779 22.8702 20.1779 21.7581Z" fill="white"/>
</svg>
