<svg width="54" height="54" viewBox="0 0 54 54" fill="none" xmlns="http://www.w3.org/2000/svg">
<g clip-path="url(#clip0_9285_9131)">
<path d="M53.5087 13.4734L53.4952 13.0903C53.4764 10.2621 51.1542 7.96129 48.3182 7.96129H9.36101V1.15345C9.36101 0.787138 9.0646 0.490723 8.69829 0.490723H4.98792C2.50852 0.490723 0.491211 2.50285 0.491211 4.97643C0.491211 4.99872 0.491251 5.01999 0.491251 5.04224C0.491251 5.04216 0.491251 5.04232 0.491251 5.04224C0.491251 5.04248 0.491251 5.04297 0.491251 5.04321C0.513903 43.7704 0.526807 43.8987 0.53069 43.9414C0.776624 46.4189 3.00621 48.3598 5.60793 48.3598H45.2551V52.8462C45.2551 53.2125 45.5515 53.5089 45.9178 53.5089H48.315C51.1795 53.5089 53.5094 51.1848 53.5094 48.3281V13.4967C53.5094 13.4924 53.507 13.4888 53.5069 13.4845C53.5068 13.4806 53.5089 13.4773 53.5087 13.4734ZM4.98792 1.81618H8.03556V7.96129H4.73551C3.12598 7.96129 1.81675 6.65214 1.81667 5.0426C1.81667 5.00855 1.81667 4.98306 1.81667 4.97578C1.81667 3.23353 3.2392 1.81618 4.98792 1.81618ZM5.60793 47.0344C3.67994 47.0344 2.02895 45.6183 1.85226 43.8541C1.84154 43.3625 1.82419 17.2836 1.81853 8.11743C2.57987 8.84002 3.60551 9.28674 4.73551 9.28674H48.3182C50.4281 9.28674 52.1561 10.9973 52.1703 13.1181L52.1838 13.4988C52.1827 15.6239 50.4475 17.3521 48.315 17.3521H45.9178C45.5515 17.3521 45.2551 17.6485 45.2551 18.0148V47.0344H5.60793ZM52.1839 48.3281C52.1839 50.4541 50.4482 52.1834 48.315 52.1834H46.5805V18.6775H48.315C49.8502 18.6775 51.2319 18.0096 52.1839 16.9502V48.3281Z" fill="white"/>
<path d="M37.1325 15.3442H13.0368C12.6704 15.3442 12.374 15.6407 12.374 16.007V40.1027C12.374 40.469 12.6704 40.7654 13.0368 40.7654H37.1325C37.4988 40.7654 37.7952 40.469 37.7952 40.1027V16.007C37.7952 15.6407 37.4988 15.3442 37.1325 15.3442ZM13.6995 39.4399V32.3907H20.7118V33.4171C20.7118 33.7835 21.0082 34.0799 21.3746 34.0799C21.7409 34.0799 22.0373 33.7835 22.0373 33.4171V30.0381C22.0373 29.6718 21.7409 29.3754 21.3746 29.3754C21.0082 29.3754 20.7118 29.6718 20.7118 30.0381V31.0652H13.6995V16.6697H24.4222V23.7629H16.5445C16.1782 23.7629 15.8818 24.0594 15.8818 24.4257C15.8818 24.792 16.1782 25.0884 16.5445 25.0884H33.6247C33.991 25.0884 34.2874 24.792 34.2874 24.4257C34.2874 24.0594 33.991 23.7629 33.6247 23.7629H25.7477V16.6697H36.4697V31.0652H29.1985C28.8322 31.0652 28.5358 31.3617 28.5358 31.728C28.5358 32.0943 28.8322 32.3907 29.1985 32.3907H36.4697V39.4399H13.6995Z" fill="white"/>
</g>
<defs>
<clipPath id="clip0_9285_9131">
<rect width="54" height="54" fill="white"/>
</clipPath>
</defs>
</svg>
