<svg width="54" height="54" viewBox="0 0 54 54" fill="none" xmlns="http://www.w3.org/2000/svg">
<g clip-path="url(#clip0_9285_9119)">
<path d="M27.0001 14.7295C23.9973 14.7295 21.5547 17.1715 21.5547 20.1739C21.5547 23.1768 23.9973 25.6188 27.0001 25.6188C30.0025 25.6188 32.4451 23.1768 32.4451 20.1739C32.4451 17.1715 30.0025 14.7295 27.0001 14.7295ZM27.0001 24.2691C24.7419 24.2691 22.905 22.4316 22.905 20.1739C22.905 17.9162 24.7419 16.0793 27.0001 16.0793C29.2578 16.0793 31.0953 17.9162 31.0953 20.1739C31.0953 22.4316 29.2578 24.2691 27.0001 24.2691Z" fill="white"/>
<path d="M53.3251 0H0.675144C0.302296 0 0 0.301781 0 0.675144V53.3251C0 53.6979 0.302296 54.0002 0.675144 54.0002H53.3251C53.6979 54.0002 54.0002 53.6979 54.0002 53.3251V0.675144C54.0002 0.301781 53.6979 0 53.3251 0ZM1.34977 38.9771C1.38531 38.921 1.54289 38.6779 1.87609 38.2834C2.11607 37.9986 2.08002 37.5727 1.79472 37.3322C1.66546 37.2225 1.50684 37.1782 1.34977 37.1808V27.7752C2.06148 28.0466 3.7429 28.785 5.60818 30.2888C7.86793 32.1093 10.8698 35.4613 12.3406 41.0926C14.1116 47.8724 17.8009 51.1137 20.64 52.6499H1.34977V38.9771ZM46.2106 52.6499C46.1009 52.6123 45.8599 52.5186 45.5153 52.325C45.1904 52.1406 44.7789 52.257 44.5961 52.5819C44.5837 52.6036 44.5837 52.6278 44.5739 52.6499H24.5467C23.9725 52.5583 16.3595 51.1374 13.6471 40.7512C12.7526 37.3266 11.34 34.6816 9.78779 32.6448C10.4202 32.3395 11.0845 32.0397 11.7669 31.7529C12.1109 31.6082 12.2721 31.2127 12.1279 30.8687C11.9842 30.5262 11.5892 30.3624 11.2442 30.5082C10.5098 30.8167 9.79345 31.1401 9.11419 31.4697C9.0457 31.5031 8.99111 31.552 8.94012 31.6025C5.45523 27.6129 1.61705 26.4249 1.37243 26.3528C1.36471 26.3507 1.3575 26.3528 1.34977 26.3507V1.34977H22.3745C22.3997 1.37037 22.4167 1.39767 22.4456 1.41466C22.4482 1.41672 22.7154 1.57791 23.163 1.95591C23.2896 2.06251 23.4441 2.11452 23.5981 2.11452C23.7902 2.11452 23.9808 2.03316 24.1141 1.87454C24.2424 1.72314 24.2861 1.53259 24.2619 1.34977H52.6499V15.055C52.6314 15.0932 52.6046 15.1261 52.5928 15.1683C52.5922 15.1709 52.5114 15.4578 52.2451 15.931C52.0618 16.2555 52.1772 16.6675 52.5021 16.8498C52.5495 16.8771 52.5994 16.8956 52.6499 16.91V52.6499H46.2106Z" fill="white"/>
<path d="M36.437 35.2442C36.3659 34.9229 36.2964 34.5964 36.2284 34.2632C36.2269 34.256 36.2217 34.2508 36.2197 34.2436C37.9001 31.2361 39.3889 28.0448 40.2226 25.0702C40.4945 24.9852 40.7644 24.8998 41.026 24.8132C41.3798 24.6958 41.5714 24.3137 41.454 23.9594C41.3365 23.6072 40.957 23.4176 40.6027 23.5314C40.8107 22.5092 40.9266 21.523 40.9266 20.5919C40.9266 13.4851 35.5723 7.61586 28.688 6.7785C28.5562 6.55242 28.4244 6.32583 28.2935 6.1152C28.0979 5.79797 27.6823 5.69909 27.365 5.8953C27.0962 6.06113 26.9973 6.38248 27.0885 6.67035C27.0586 6.67035 27.0303 6.66623 27.0004 6.66623C19.3215 6.66623 13.0742 12.913 13.0742 20.5919C13.0742 23.0046 13.9873 25.9581 15.3319 29.0057C15.1862 29.0526 15.0363 29.0995 14.8931 29.1468C14.5393 29.2632 14.3473 29.6448 14.4642 29.9991C14.5579 30.2829 14.8216 30.4626 15.1053 30.4626C15.1754 30.4626 15.2464 30.4518 15.317 30.4281C15.5065 30.3653 15.7032 30.304 15.8974 30.2422C19.7118 38.2878 26.0848 46.5765 26.4664 47.0698C26.5926 47.2326 26.7862 47.3289 26.9927 47.3314H27.0004C27.2038 47.3314 27.3959 47.2398 27.5242 47.0817C27.8223 46.715 31.763 41.8201 35.2948 35.8483C35.4199 35.9796 35.5898 36.0646 35.7768 36.0646C35.8252 36.0646 35.8741 36.0595 35.923 36.0492C36.2871 35.9683 36.5173 35.6089 36.437 35.2442ZM27.0117 45.5517C24.5712 42.2784 14.424 28.208 14.424 20.5919C14.424 13.6571 20.0656 8.01601 27.0004 8.01601C33.9347 8.01601 39.5763 13.6571 39.5763 20.5919C39.5763 28.8698 29.4744 42.3809 27.0117 45.5517Z" fill="white"/>
<path d="M41.728 48.6324C41.5133 48.3281 41.0925 48.255 40.7871 48.4707C40.4828 48.6855 40.4107 49.1067 40.626 49.4116C41.0647 50.0332 41.5236 50.6084 41.9886 51.1219C42.122 51.2692 42.3048 51.3438 42.4892 51.3438C42.6509 51.3438 42.8126 51.2867 42.9418 51.1693C43.2184 50.9195 43.2395 50.4926 42.9892 50.216C42.5602 49.7422 42.1364 49.2097 41.728 48.6324Z" fill="white"/>
<path d="M39.1039 43.8337C38.9566 43.4912 38.5596 43.3336 38.2176 43.4799C37.8752 43.6272 37.7165 44.0237 37.8633 44.3667C38.1558 45.047 38.4622 45.7026 38.7748 46.3149C38.8943 46.5492 39.1307 46.6836 39.3769 46.6836C39.4799 46.6836 39.5849 46.6599 39.6828 46.61C40.0149 46.4405 40.1468 46.0337 39.9773 45.702C39.6781 45.1155 39.3846 44.4872 39.1039 43.8337Z" fill="white"/>
<path d="M37.8882 40.6022C37.6806 39.9724 37.4777 39.3101 37.281 38.6144C37.179 38.2559 36.8072 38.0448 36.4473 38.1493C36.0888 38.2508 35.8803 38.6236 35.9817 38.9826C36.18 39.6819 36.3901 40.3694 36.6064 41.025C36.7001 41.3088 36.9638 41.4885 37.2475 41.4885C37.3171 41.4885 37.3886 41.4782 37.4587 41.455C37.813 41.3376 38.0051 40.956 37.8882 40.6022Z" fill="white"/>
<path d="M25.7678 4.79403C25.9001 4.9717 26.103 5.06439 26.3085 5.06439C26.4491 5.06439 26.5912 5.02011 26.7128 4.92947C27.011 4.70596 27.0712 4.28265 26.8477 3.98499C26.5294 3.55961 26.2024 3.15277 25.8764 2.77477C25.6329 2.49153 25.207 2.46166 24.9248 2.70422C24.6425 2.94781 24.6106 3.3737 24.8542 3.65643C25.1601 4.01125 25.467 4.39388 25.7678 4.79403Z" fill="white"/>
<path d="M45.6714 21.4438C45.0838 21.745 44.4591 22.0381 43.8154 22.3156C43.4729 22.4629 43.3148 22.86 43.4626 23.2024C43.5723 23.4574 43.8211 23.6103 44.0827 23.6103C44.1718 23.6103 44.2624 23.5923 44.3494 23.5552C45.0205 23.2663 45.6724 22.9604 46.2868 22.6458C46.6185 22.4758 46.7498 22.069 46.5798 21.7368C46.4104 21.4052 46.0046 21.2754 45.6714 21.4438Z" fill="white"/>
<path d="M50.1533 18.4419C49.6826 18.8688 49.1537 19.2921 48.5805 19.6989C48.2762 19.9142 48.2046 20.3354 48.4209 20.6398C48.5522 20.8252 48.7608 20.9241 48.9719 20.9241C49.1068 20.9241 49.2433 20.8839 49.3617 20.7994C49.9787 20.3617 50.5503 19.9044 51.0612 19.4409C51.3367 19.1906 51.3578 18.7632 51.107 18.4877C50.8567 18.2122 50.4293 18.1911 50.1533 18.4419Z" fill="white"/>
<path d="M5.69557 33.3641C5.01115 33.7977 4.35918 34.2509 3.75768 34.7087C3.46157 34.9343 3.4044 35.3581 3.63048 35.6547C3.76335 35.8288 3.96419 35.9204 4.16761 35.9204C4.31026 35.9204 4.45446 35.8756 4.57651 35.7819C5.1466 35.3478 5.76612 34.9178 6.41809 34.5048C6.73326 34.3049 6.82647 33.8883 6.62717 33.5731C6.42736 33.258 6.01022 33.1637 5.69557 33.3641Z" fill="white"/>
</g>
<defs>
<clipPath id="clip0_9285_9119">
<rect width="54" height="54" fill="white"/>
</clipPath>
</defs>
</svg>
