<svg width="58" height="58" viewBox="0 0 58 58" fill="none" xmlns="http://www.w3.org/2000/svg">
<g clip-path="url(#clip0_9307_18423)">
<mask id="mask0_9307_18423" style="mask-type:luminance" maskUnits="userSpaceOnUse" x="0" y="10" width="38" height="38">
<path d="M36.9648 46.9919V11.1091H1.08203V46.9919H36.9648Z" fill="white" stroke="white" stroke-width="1.5"/>
</mask>
<g mask="url(#mask0_9307_18423)">
<path d="M9.50108 30.0588L4.31852 43.6662C3.80714 45.0089 4.48105 46.5119 5.82377 47.0233C6.12845 47.1394 6.44131 47.1943 6.74914 47.1943C7.79746 47.1943 8.7854 46.556 9.18077 45.5181L11.4495 39.5612H20.9519M23.1423 39.5612H26.6119L28.8572 45.5107C29.3646 46.8549 30.8656 47.5333 32.2097 47.026C33.5539 46.5188 34.2324 45.0179 33.7251 43.6736L22.1592 13.0262C22.1501 13.0022 22.1408 12.9784 22.1311 12.9548C21.619 11.7103 20.4193 10.9067 19.0737 10.9067H19.0704C17.7237 10.908 16.5238 11.7143 16.0139 12.9609C16.0058 12.9805 15.998 13.0003 15.9905 13.0201L10.3156 27.9201M13.4312 34.3582L19.0655 19.5645L24.6484 34.3582H13.4312Z" stroke="#333439" stroke-width="1.5" stroke-miterlimit="10" stroke-linecap="round" stroke-linejoin="round"/>
</g>
<path d="M42.2531 26.2531H38.7469V22.7469C38.7469 22.3344 38.4125 22 38 22C37.5875 22 37.2531 22.3344 37.2531 22.7469V26.2531H33.7469C33.3344 26.2531 33 26.5875 33 27C33 27.4125 33.3344 27.7469 33.7469 27.7469H37.2531V31.2531C37.2531 31.6656 37.5875 32 38 32C38.4125 32 38.7469 31.6656 38.7469 31.2531V27.7469H42.2531C42.6656 27.7469 43 27.4125 43 27C43 26.5875 42.6656 26.2531 42.2531 26.2531Z" fill="#333439"/>
<path d="M55.2531 26.2531H51.7469V22.7469C51.7469 22.3344 51.4125 22 51 22C50.5875 22 50.2531 22.3344 50.2531 22.7469V26.2531H46.7469C46.3344 26.2531 46 26.5875 46 27C46 27.4125 46.3344 27.7469 46.7469 27.7469H50.2531V31.2531C50.2531 31.6656 50.5875 32 51 32C51.4125 32 51.7469 31.6656 51.7469 31.2531V27.7469H55.2531C55.6656 27.7469 56 27.4125 56 27C56 26.5875 55.6656 26.2531 55.2531 26.2531Z" fill="#333439"/>
</g>
<defs>
<clipPath id="clip0_9307_18423">
<rect width="58" height="58" fill="white"/>
</clipPath>
</defs>
</svg>
