<svg width="54" height="54" viewBox="0 0 54 54" fill="none" xmlns="http://www.w3.org/2000/svg">
<path d="M42.8715 2.80484H2.25186C1.44503 2.80484 0.791016 3.45885 0.791016 4.26569V10.7099H53.209V4.26569C53.209 3.45885 52.555 2.80484 51.7481 2.80484H46.5748" stroke="#333439" stroke-width="1.5" stroke-miterlimit="10" stroke-linecap="round" stroke-linejoin="round"/>
<path d="M44.7304 10.7099H9.26953V51.1952H44.7304V10.7099Z" stroke="#333439" stroke-width="1.5" stroke-miterlimit="10" stroke-linecap="round" stroke-linejoin="round"/>
<path d="M9.26954 51.1952V10.7099H0.791016V49.7343C0.791016 50.5412 1.44503 51.1952 2.25186 51.1952H5.55409" stroke="#333439" stroke-width="1.5" stroke-miterlimit="10" stroke-linecap="round" stroke-linejoin="round"/>
<path d="M44.7305 51.1952H51.7481C52.555 51.1952 53.209 50.5412 53.209 49.7343V10.7099H44.7305V51.1952Z" stroke="#333439" stroke-width="1.5" stroke-miterlimit="10" stroke-linecap="round" stroke-linejoin="round"/>
<path d="M27 10.7099V51.1867" stroke="#333439" stroke-width="1.5" stroke-miterlimit="10" stroke-linecap="round" stroke-linejoin="round"/>
<circle cx="47.5742" cy="32.8515" r="0.791016" fill="#333439"/>
<circle cx="50.3662" cy="32.8515" r="0.791016" fill="#333439"/>
<circle cx="47.5742" cy="35.4302" r="0.791016" fill="#333439"/>
<circle cx="50.3662" cy="35.4302" r="0.791016" fill="#333439"/>
<circle cx="47.5742" cy="38.0088" r="0.791016" fill="#333439"/>
<circle cx="50.3662" cy="38.0088" r="0.791016" fill="#333439"/>
<path d="M34.6019 10.7099H19.3976C18.7481 10.7099 18.2217 10.1834 18.2217 9.53406V3.98071C18.2217 3.33123 18.7482 2.80484 19.3976 2.80484H34.6019C35.2514 2.80484 35.7778 3.33134 35.7778 3.98071V9.53396C35.7778 10.1834 35.2513 10.7099 34.6019 10.7099Z" stroke="#333439" stroke-width="1.5" stroke-miterlimit="10" stroke-linecap="round" stroke-linejoin="round"/>
<path d="M47.5742 29.1711H50.3659" stroke="#333439" stroke-width="1.5" stroke-miterlimit="10" stroke-linecap="round" stroke-linejoin="round"/>
<path d="M31.374 27.1784L35.778 22.7744L40.1819 27.1784" stroke="#333439" stroke-width="1.5" stroke-miterlimit="10" stroke-linecap="round" stroke-linejoin="round"/>
<path d="M35.7783 22.7744V36.0308" stroke="#333439" stroke-width="1.5" stroke-miterlimit="10" stroke-linecap="round" stroke-linejoin="round"/>
<path d="M13.8184 31.6268L18.2223 36.0308L22.6263 31.6268" stroke="#333439" stroke-width="1.5" stroke-miterlimit="10" stroke-linecap="round" stroke-linejoin="round"/>
<path d="M18.2227 36.0308V22.7744" stroke="#333439" stroke-width="1.5" stroke-miterlimit="10" stroke-linecap="round" stroke-linejoin="round"/>
</svg>
