<svg width="54" height="54" viewBox="0 0 54 54" fill="none" xmlns="http://www.w3.org/2000/svg">
<g clip-path="url(#clip0_9307_18436)">
<path d="M17.1387 40.4633C16.265 40.4633 15.5566 39.7549 15.5566 38.8812V15.1187C15.5566 14.245 16.265 13.5367 17.1387 13.5367C18.0124 13.5367 18.7207 14.245 18.7207 15.1187V38.8812C18.7207 39.7549 18.0124 40.4633 17.1387 40.4633Z" stroke="#333439" stroke-width="1.5" stroke-miterlimit="10" stroke-linecap="round" stroke-linejoin="round"/>
<path d="M9.83011 18.4466C12.6699 16.7644 15.5566 15.7236 15.5566 15.7236V38.2763C15.5566 38.2763 4.37695 34.2453 4.37695 29.2292V24.7706C4.37695 23.2562 5.3961 21.8315 6.81887 20.5804" stroke="#333439" stroke-width="1.5" stroke-miterlimit="10" stroke-linecap="round" stroke-linejoin="round"/>
<path d="M4.37695 28.9672H2.72595C1.65734 28.9672 0.791016 28.1009 0.791016 27.0323V26.9678C0.791016 25.8992 1.65734 25.0329 2.72595 25.0329H4.37695V28.9672Z" stroke="#333439" stroke-width="1.5" stroke-miterlimit="10" stroke-linecap="round" stroke-linejoin="round"/>
<path d="M23.3779 21.3616C23.9823 23.1303 24.3092 25.0267 24.3092 27C24.3092 28.9733 23.9823 30.8696 23.379 32.6384" stroke="#333439" stroke-width="1.5" stroke-miterlimit="10" stroke-linecap="round" stroke-linejoin="round"/>
<path d="M26.9912 19.7248C27.8191 21.9945 28.2705 24.4445 28.2705 27C28.2705 29.5555 27.8191 32.0056 26.9912 34.2753" stroke="#333439" stroke-width="1.5" stroke-miterlimit="10" stroke-linecap="round" stroke-linejoin="round"/>
<path d="M30.5479 18.1143C31.5878 20.8786 32.1552 23.8729 32.1552 27C32.1552 30.1271 31.5878 33.1214 30.5479 35.8857" stroke="#333439" stroke-width="1.5" stroke-miterlimit="10" stroke-linecap="round" stroke-linejoin="round"/>
<path d="M44.8759 47.1806C44.9226 47.415 44.949 47.6748 44.949 47.9673C44.949 50.2486 43.348 50.5441 42.9331 52.3109C42.8256 52.7686 43.1665 53.2089 43.6367 53.2089H49.8344V0.790894H43.6367C43.1665 0.790894 42.8256 1.23112 42.9331 1.68885C43.3479 3.45598 44.949 3.75151 44.949 6.03322C44.949 8.65443 42.8359 8.65443 42.8359 11.2755C42.8359 13.8963 44.949 13.8963 44.949 16.5172C44.949 19.1381 42.8359 19.1381 42.8359 21.759C42.8359 24.3798 44.949 24.3798 44.949 27.0006C44.949 29.6214 42.8359 29.6214 42.8359 32.2421C42.8359 34.863 44.949 34.863 44.949 37.4839C44.949 40.1047 42.8359 40.1047 42.8359 42.7255C42.8359 43.1759 42.8984 43.549 43.0017 43.8713" stroke="#333439" stroke-width="1.5" stroke-miterlimit="10" stroke-linecap="round" stroke-linejoin="round"/>
<path d="M52.478 53.209H49.834V0.791016H52.478C52.8817 0.791016 53.209 1.11829 53.209 1.52202V52.4781C53.209 52.8817 52.8817 53.209 52.478 53.209Z" stroke="#333439" stroke-width="1.5" stroke-miterlimit="10" stroke-linecap="round" stroke-linejoin="round"/>
<path d="M37.1987 40.8395L30.5176 47.5208" stroke="#333439" stroke-width="1.5" stroke-miterlimit="10" stroke-linecap="round" stroke-linejoin="round"/>
<path d="M33.3292 48.2063L29.5176 48.521L29.8323 44.7095" stroke="#333439" stroke-width="1.5" stroke-miterlimit="10" stroke-linecap="round" stroke-linejoin="round"/>
<path d="M37.1987 13.1605L30.5176 6.47925" stroke="#333439" stroke-width="1.5" stroke-miterlimit="10" stroke-linecap="round" stroke-linejoin="round"/>
<path d="M33.3292 5.79372L29.5176 5.479L29.8323 9.29054" stroke="#333439" stroke-width="1.5" stroke-miterlimit="10" stroke-linecap="round" stroke-linejoin="round"/>
</g>
<defs>
<clipPath id="clip0_9307_18436">
<rect width="54" height="54" fill="white"/>
</clipPath>
</defs>
</svg>
