<svg width="54" height="54" viewBox="0 0 54 54" fill="none" xmlns="http://www.w3.org/2000/svg">
<g clip-path="url(#clip0_11005_5671)">
<g clip-path="url(#clip1_11005_5671)">
<path d="M40.1559 45.0631H42.652C45.4666 45.0631 47.9658 43.2617 48.856 40.5911L49.3616 36.5983C49.4667 35.7733 50.1687 35.1543 51.0001 35.1543H53.1883C53.1357 33.376 51.6296 31.9834 49.8503 31.9834C47.5875 31.9834 45.7535 33.8174 45.7535 36.0802V37.4665C45.7535 39.8985 43.7818 41.8702 41.3498 41.8702H31.0006C28.5686 41.8702 26.5969 39.8985 26.5969 37.4665V35.9898C26.5969 33.7039 24.745 31.852 22.4591 31.852H22.4528C20.5925 31.852 19.0864 33.3917 19.1411 35.2646H21.3745C22.2027 35.2646 22.9037 35.8784 23.0109 36.7003L23.5175 40.5501C24.4171 43.2491 26.9332 45.0631 29.7783 45.0631H38.5794" stroke="black" stroke-width="1.2" stroke-miterlimit="10"/>
<path d="M25.4619 33.558L27.7797 26.8977C29.0286 23.3089 32.4122 20.9037 36.2121 20.9037C40.012 20.9037 43.3956 23.3089 44.6446 26.8977L46.9623 33.558" stroke="black" stroke-width="1.2" stroke-miterlimit="10"/>
<path d="M29.2237 45.1177L23.9346 53.4848" stroke="black" stroke-width="1.2" stroke-miterlimit="10"/>
<path d="M43.2012 45.1177L48.4903 53.4848" stroke="black" stroke-width="1.2" stroke-miterlimit="10"/>
<path d="M3.27264 45.8514L4.15653 53.1169H11.8299L13.3654 40.5049H2.62207L3.08031 44.2749" stroke="black" stroke-width="1.2" stroke-miterlimit="10"/>
<path d="M11.5146 40.5049C11.5146 31.6926 1.71191 31.5777 1.71191 31.5777C1.71191 31.5777 4.78861 35.2282 4.78861 40.5049" stroke="black" stroke-width="1.2" stroke-miterlimit="10"/>
<path d="M11.5146 40.5049C11.5146 35.2688 16.3774 26.0509 16.4257 25.9301C12.2641 27.1171 8.65305 29.046 8.10254 33.5967" stroke="black" stroke-width="1.2" stroke-miterlimit="10"/>
<path d="M10.3593 29.0769C8.10259 24.7431 2.96582 22.9626 2.96582 22.9626L4.98795 32.1296" stroke="black" stroke-width="1.2" stroke-miterlimit="10"/>
<path d="M10.7275 16.1125C10.7275 11.4688 14.4919 7.70447 19.1355 7.70447C23.7792 7.70447 27.5436 11.4688 27.5436 16.1125H10.7275Z" stroke="black" stroke-width="1.2" stroke-miterlimit="10"/>
<path d="M19.1357 7.70444V0.0939331" stroke="black" stroke-width="1.2" stroke-miterlimit="10"/>
<path d="M45.3054 16.6472C49.6587 16.6472 53.1879 13.1181 53.1879 8.76471C53.1879 4.41132 49.6587 0.882202 45.3054 0.882202C40.952 0.882202 37.4229 4.41132 37.4229 8.76471C37.4229 13.1181 40.952 16.6472 45.3054 16.6472Z" stroke="black" stroke-width="1.2" stroke-miterlimit="10"/>
<path d="M45.2089 3.88373V9.29018H42.2793" stroke="black" stroke-width="1.2" stroke-miterlimit="10"/>
<path d="M33.8477 31.3736H35.4242" stroke="black" stroke-width="1.2" stroke-miterlimit="10"/>
<path d="M37.001 31.3736H38.5775" stroke="black" stroke-width="1.2" stroke-miterlimit="10"/>
</g>
</g>
<defs>
<clipPath id="clip0_11005_5671">
<rect width="54" height="54" fill="white"/>
</clipPath>
<clipPath id="clip1_11005_5671">
<rect width="54" height="54" fill="white"/>
</clipPath>
</defs>
</svg>
