<svg width="32" height="32" viewBox="0 0 32 32" fill="none" xmlns="http://www.w3.org/2000/svg">
<g clip-path="url(#clip0_9353_609)">
<path d="M19.8478 13.6923H18.5113C18.5113 12.2139 17.9852 11.6878 16.5068 11.6878V10.3516C18.7203 10.3516 19.8478 11.4791 19.8478 13.6923Z" fill="#333439"/>
<path d="M22.5203 13.6922H21.1841C21.1841 10.719 19.4803 9.01496 16.5068 9.01496V7.67871C20.2153 7.67871 22.5203 9.98393 22.5203 13.6922Z" fill="#333439"/>
<path d="M25.1931 13.6921H23.8568C23.8568 9.29893 20.9 6.34235 16.5068 6.34235V5.00586C21.7018 5.00586 25.1931 8.49708 25.1931 13.6921Z" fill="#333439"/>
<path d="M9.82535 31.9999V27.3897L8.3971 27.2226C4.98099 26.8049 2.3085 23.9988 2.04105 20.5494C1.89081 18.5114 1.80737 16.4235 1.80737 14.3605C1.80737 12.2975 1.89081 10.2179 2.04105 8.1716C2.3085 4.72221 5.03115 1.90755 8.51406 1.48155C13.8177 0.839484 19.1793 0.839484 24.4832 1.48155C27.9742 1.90755 30.6971 4.72221 30.9643 8.1716C31.1231 10.2094 31.1982 12.2975 31.1982 14.3605C31.1982 16.4235 31.1148 18.5114 30.9643 20.5494C30.7054 23.9903 28.0327 26.7966 24.6251 27.2226C22.2389 27.5177 19.8383 27.6821 17.434 27.7154L9.82535 31.9999ZM16.5068 2.33356C13.8911 2.33405 11.2776 2.49309 8.68094 2.80948C5.82468 3.16036 3.59458 5.45726 3.37754 8.28024C3.21874 10.2847 3.14362 12.3308 3.14362 14.3605C3.14362 16.39 3.21874 18.4446 3.37754 20.4491C3.59581 23.2662 5.76155 25.5433 8.56422 25.903C9.22659 25.9864 9.89215 26.0589 10.5601 26.12L11.1699 26.1785V29.7199L17.0833 26.3875H17.2502C19.6628 26.3606 22.072 26.1988 24.4663 25.903C27.2477 25.5607 29.4191 23.2638 29.6364 20.4574C29.7949 18.4529 29.8703 16.3983 29.8703 14.3688C29.8703 12.3391 29.7949 10.293 29.6364 8.28024C29.4191 5.45726 27.1892 3.16036 24.3244 2.80948C21.7305 2.49383 19.1199 2.33478 16.5068 2.33356Z" fill="#333439"/>
<path d="M19.1294 23.0466H18.5113C12.2473 23.0466 7.15261 17.952 7.15261 11.6879V11.0698C7.14942 10.004 7.57347 8.98117 8.33029 8.23022L8.88158 7.67894C9.74166 6.81861 11.245 6.81861 12.1054 7.67894L13.8343 9.40791C14.2635 9.83416 14.504 10.4148 14.5023 11.0197C14.5004 11.6241 14.2603 12.2032 13.8343 12.6317L13.6755 12.7905C13.3484 13.1186 13.1651 13.5632 13.1661 14.0264C13.1678 14.4894 13.3508 14.933 13.6755 15.2626L14.9283 16.5154C15.5799 17.167 16.7574 17.167 17.409 16.5154L17.5676 16.3568C18.4279 15.4965 19.9313 15.4965 20.7916 16.3568L22.5203 18.0939C23.4105 18.9843 23.4105 20.4275 22.5203 21.3179L21.9693 21.8692C21.2183 22.6258 20.1955 23.0498 19.1294 23.0466ZM10.4933 8.34718C10.243 8.34669 10.0025 8.44579 9.82535 8.6227L9.27406 9.17399C8.76902 9.67536 8.48616 10.3583 8.48885 11.0698V11.6879C8.4935 17.2213 12.9782 21.7057 18.5113 21.7104H19.1294C19.8383 21.7111 20.5178 21.4283 21.0169 20.9254L21.5682 20.3741C21.7459 20.197 21.8455 19.9567 21.8455 19.7059C21.8455 19.4551 21.7459 19.2148 21.5682 19.0377L19.8478 17.3089C19.4734 16.9524 18.8857 16.9524 18.5113 17.3089L18.3528 17.4675C17.1462 18.6731 15.1911 18.6731 13.9846 17.4675L12.7318 16.2147C12.1541 15.6328 11.8298 14.8464 11.8298 14.0264C11.8286 13.2089 12.1531 12.4244 12.7318 11.8467L12.8906 11.6879C13.0665 11.51 13.1656 11.27 13.1661 11.0197C13.1666 10.7694 13.0675 10.5288 12.8906 10.3517L11.1616 8.6227C10.9842 8.44579 10.7439 8.34669 10.4933 8.34718Z" fill="#333439"/>
</g>
<defs>
<clipPath id="clip0_9353_609">
<rect width="31" height="31" fill="white" transform="translate(1 1)"/>
</clipPath>
</defs>
</svg>
