<svg width="32" height="32" viewBox="0 0 32 32" fill="none" xmlns="http://www.w3.org/2000/svg">
<g clip-path="url(#clip0_9353_605)">
<path d="M24.1266 18.8716L19.6266 16.6216C19.5381 16.5774 19.4394 16.5574 19.3407 16.5636C19.2419 16.5698 19.1465 16.6019 19.0641 16.6567L16.7241 18.2177C15.4379 17.6008 14.4005 16.5635 13.7837 15.2772L15.3446 12.9372C15.3994 12.8548 15.4316 12.7594 15.4377 12.6607C15.4439 12.5619 15.4239 12.4633 15.3798 12.3747L13.1298 7.87469C13.0831 7.78076 13.0111 7.70175 12.9219 7.64658C12.8327 7.59142 12.7298 7.56229 12.6249 7.5625C11.2823 7.5625 9.9946 8.09587 9.0452 9.04527C8.0958 9.99468 7.56243 11.2823 7.56243 12.625C7.56578 15.7568 8.81138 18.7595 11.0259 20.974C13.2405 23.1885 16.2431 24.4342 19.3749 24.4375C20.7176 24.4375 22.0053 23.9041 22.9547 22.9547C23.9041 22.0053 24.4374 20.7177 24.4374 19.375C24.4375 19.2705 24.4085 19.168 24.3536 19.0791C24.2987 18.9902 24.2201 18.9183 24.1266 18.8716ZM19.3749 23.3125C16.5413 23.3095 13.8247 22.1826 11.821 20.1789C9.81736 18.1753 8.69041 15.4586 8.68743 12.625C8.68726 11.6395 9.05665 10.6898 9.72264 9.96338C10.3886 9.23698 11.3028 8.78674 12.2846 8.70156L14.2252 12.5842L12.6784 14.9102C12.6268 14.9869 12.595 15.0752 12.5856 15.1671C12.5763 15.2591 12.5898 15.352 12.6249 15.4375C13.3723 17.2142 14.7857 18.6276 16.5624 19.375C16.648 19.4106 16.7411 19.4244 16.8333 19.4153C16.9256 19.4063 17.0142 19.3745 17.0912 19.323L19.4171 17.7761L23.2998 19.7167C23.2142 20.6985 22.7637 21.6125 22.037 22.2783C21.3103 22.944 20.3604 23.3131 19.3749 23.3125ZM15.9999 1.9375C13.5518 1.93705 11.1459 2.57572 9.02031 3.79036C6.89471 5.005 5.12304 6.75351 3.88054 8.86293C2.63804 10.9724 1.96776 13.3696 1.936 15.8176C1.90424 18.2655 2.5121 20.6794 3.69946 22.8203L2.02602 27.8392C1.92687 28.1366 1.91248 28.4556 1.98447 28.7607C2.05645 29.0657 2.21198 29.3447 2.43361 29.5663C2.65524 29.7879 2.93421 29.9435 3.23926 30.0155C3.54431 30.0875 3.86338 30.0731 4.16071 29.9739L9.17962 28.3005C11.057 29.3407 13.1477 29.9374 15.2913 30.0449C17.435 30.1523 19.5748 29.7676 21.5468 28.9203C23.5188 28.0729 25.2707 26.7854 26.6683 25.1564C28.0658 23.5274 29.0719 21.6001 29.6095 19.5221C30.1471 17.4442 30.2019 15.2708 29.7697 13.1684C29.3375 11.066 28.4298 9.09041 27.1161 7.39303C25.8024 5.69565 24.1176 4.32151 22.1908 3.37588C20.264 2.43024 18.1463 1.93822 15.9999 1.9375ZM15.9999 28.9375C13.7253 28.9382 11.4906 28.3391 9.52133 27.2008C9.43575 27.1515 9.33883 27.1253 9.24008 27.1248C9.17935 27.125 9.11904 27.135 9.06149 27.1544L3.80493 28.9066C3.70582 28.9396 3.59946 28.9444 3.49778 28.9204C3.39609 28.8964 3.3031 28.8446 3.22923 28.7707C3.15535 28.6968 3.10351 28.6038 3.07951 28.5022C3.05552 28.4005 3.06031 28.2941 3.09337 28.195L4.84555 22.9384C4.87083 22.8629 4.87976 22.7828 4.87176 22.7035C4.86376 22.6243 4.83901 22.5476 4.79915 22.4786C3.37279 20.0131 2.79996 17.1458 3.16951 14.3215C3.53907 11.4972 4.83035 8.87376 6.84304 6.85824C8.85573 4.84272 11.4773 3.54775 14.3011 3.17422C17.1249 2.8007 19.993 3.3695 22.4605 4.79239C24.928 6.21528 26.857 8.41271 27.9482 11.0438C29.0394 13.6749 29.2317 16.5925 28.4955 19.3441C27.7593 22.0957 26.1355 24.5274 23.8762 26.2619C21.6169 27.9965 18.8483 28.937 15.9999 28.9375Z" fill="#333439"/>
</g>
<defs>
<clipPath id="clip0_9353_605">
<rect width="32" height="32" fill="white"/>
</clipPath>
</defs>
</svg>
