<svg width="54" height="54" viewBox="0 0 54 54" fill="none" xmlns="http://www.w3.org/2000/svg">
<path d="M36.4954 40.9785C35.5367 40.872 34.577 40.7823 33.6172 40.7085" stroke="#EAD587" stroke-width="1.2" stroke-miterlimit="10" stroke-linecap="round" stroke-linejoin="round"/>
<path d="M45.4568 7.0645C47.1428 6.69947 48.8288 6.28445 50.515 5.81933C51.8692 5.44597 53.2086 6.45742 53.2086 7.86226V41.6481C53.2086 43.053 51.8692 44.0644 50.515 43.6911C48.3697 43.093 46.2139 42.5784 44.0508 42.147" stroke="#EAD587" stroke-width="1.2" stroke-miterlimit="10" stroke-linecap="round" stroke-linejoin="round"/>
<path d="M11.957 41.7715C9.11988 42.2693 6.29438 42.9095 3.48469 43.6911C2.13047 44.0644 0.791016 43.053 0.791016 41.6481V7.86226C0.791016 6.45742 2.13047 5.44597 3.48469 5.81933C16.2637 9.3442 29.0427 9.99579 41.8216 7.77409" stroke="#EAD587" stroke-width="1.2" stroke-miterlimit="10" stroke-linecap="round" stroke-linejoin="round"/>
<path d="M21.5429 48.259H11.957V39.5451C11.957 38.6632 12.4272 37.8481 13.1906 37.4065L18.85 34.133C20.0463 33.441 21.5429 34.3043 21.5429 35.6862V48.259Z" stroke="#EAD587" stroke-width="1.2" stroke-miterlimit="10" stroke-linecap="round" stroke-linejoin="round"/>
<path d="M21.5431 27.0921V25.0303C21.5431 24.2376 22.1857 23.595 22.9784 23.595H32.1828C32.9755 23.595 33.6181 24.2376 33.6181 25.0303V48.259H21.543V30.8086" stroke="#EAD587" stroke-width="1.2" stroke-miterlimit="10" stroke-linecap="round" stroke-linejoin="round"/>
<path d="M42.6584 36.6304C43.2189 36.0746 43.5663 35.3042 43.5663 34.4525C43.5663 32.7587 42.1932 31.3855 40.4993 31.3855C38.8055 31.3855 37.4324 32.7586 37.4324 34.4525C37.4324 35.3042 37.7797 36.0746 38.3403 36.6304C37.1783 37.3529 36.4043 38.6407 36.4043 40.1097C36.4043 42.3713 38.2378 44.2047 40.4993 44.2047C42.7609 44.2047 44.5944 42.3712 44.5944 40.1097C44.5944 38.6406 43.8204 37.3529 42.6584 36.6304Z" stroke="#EAD587" stroke-width="1.2" stroke-miterlimit="10" stroke-linecap="round" stroke-linejoin="round"/>
<path d="M40.498 39.6997V48.259" stroke="#EAD587" stroke-width="1.2" stroke-miterlimit="10" stroke-linecap="round" stroke-linejoin="round"/>
<path d="M25.5195 28.1606V29.7456" stroke="#EAD587" stroke-width="1.2" stroke-miterlimit="10" stroke-linecap="round" stroke-linejoin="round"/>
<path d="M25.5195 33.0293V34.6144" stroke="#EAD587" stroke-width="1.2" stroke-miterlimit="10" stroke-linecap="round" stroke-linejoin="round"/>
<path d="M25.5195 37.8979V39.483" stroke="#EAD587" stroke-width="1.2" stroke-miterlimit="10" stroke-linecap="round" stroke-linejoin="round"/>
<path d="M25.5195 42.7668V44.3518" stroke="#EAD587" stroke-width="1.2" stroke-miterlimit="10" stroke-linecap="round" stroke-linejoin="round"/>
<path d="M29.6406 28.1606V29.7456" stroke="#EAD587" stroke-width="1.2" stroke-miterlimit="10" stroke-linecap="round" stroke-linejoin="round"/>
<path d="M29.6406 33.0293V34.6144" stroke="#EAD587" stroke-width="1.2" stroke-miterlimit="10" stroke-linecap="round" stroke-linejoin="round"/>
<path d="M29.6406 37.8979V39.483" stroke="#EAD587" stroke-width="1.2" stroke-miterlimit="10" stroke-linecap="round" stroke-linejoin="round"/>
<path d="M29.6406 42.7668V44.3518" stroke="#EAD587" stroke-width="1.2" stroke-miterlimit="10" stroke-linecap="round" stroke-linejoin="round"/>
<path d="M42.982 48.259H9.40625" stroke="#EAD587" stroke-width="1.2" stroke-miterlimit="10" stroke-linecap="round" stroke-linejoin="round"/>
<path d="M11.957 40.6299H18.0702" stroke="#EAD587" stroke-width="1.2" stroke-miterlimit="10" stroke-linecap="round" stroke-linejoin="round"/>
<path d="M11.957 43.5591H18.0702" stroke="#EAD587" stroke-width="1.2" stroke-miterlimit="10" stroke-linecap="round" stroke-linejoin="round"/>
<path d="M11.75 16.9118V12.8534L8.23534 10.8242L4.7207 12.8534V16.9118L8.23534 18.941L11.75 16.9118Z" stroke="#EAD587" stroke-width="1.2" stroke-miterlimit="10" stroke-linecap="round" stroke-linejoin="round"/>
<path d="M4.7207 12.8535L8.23534 14.8827L11.75 12.8535" stroke="#EAD587" stroke-width="1.2" stroke-miterlimit="10" stroke-linecap="round" stroke-linejoin="round"/>
</svg>
