<svg width="319" height="100" viewBox="0 0 319 100" fill="none" xmlns="http://www.w3.org/2000/svg">
<path d="M1.92287 21H0V78.6864H1.92287V21Z" fill="white"/>
<path d="M4.71582 20.9999L4.71582 23.021L8.75793 23.021L8.75793 20.9999L4.71582 20.9999Z" fill="white"/>
<path d="M4.71582 52.0087V50.0742H6.60862H8.53084V52.0087H4.71582Z" fill="white"/>
<path d="M17.47 21H15.5471V78.6864H17.47V21Z" fill="#EAD587"/>
<path d="M24.3124 21H22.3901V78.9368H24.3124L24.3124 21Z" fill="#EAD587"/>
<path d="M46.1732 29.8017H65.0221L64.2838 31.0413H46.1732V50.4628H41.8301V21.5372H70.0601L69.3217 22.7769H46.1732V29.8017Z" fill="white"/>
<path d="M69.1864 36.0413C69.1864 26 78.9583 21 87.6444 21C96.3306 21 106.146 26 106.146 36.0413C106.146 45.9587 96.3306 51 87.6444 51C78.9583 51 69.1864 45.9587 69.1864 36.0413ZM73.7032 35.7934C73.7032 43.2727 78.6977 49.9256 87.6879 49.8843C96.7649 49.843 101.586 43.4793 101.673 36.1653C101.629 28.686 96.6346 21.9091 87.6444 21.9917C78.5674 22.0744 73.7466 28.4793 73.7032 35.7934Z" fill="white"/>
<path d="M115.815 22.7769V29.8017H131.884C134.707 29.8017 134.925 29.2645 134.925 26.4959C134.925 23.8099 134.707 22.7769 131.884 22.7769H115.815ZM136.792 50.4628L125.066 31.0413H115.815V50.4628H111.472V21.5372H132.753C136.575 21.5372 139.702 22.8595 139.702 26.4959C139.702 30.1322 136.575 31.0413 132.753 31.0413H130.017L141.83 50.4628H136.792Z" fill="white"/>
<path d="M165.035 21L186.605 46.4143H187.039V21H188.342V51H184.869L160.434 22.2857H159.132V51H157.83V21H165.035Z" fill="#EAD587"/>
<path d="M200.062 29.5714H217.162L216.425 30.8571H200.062V49.7143H223.933L223.195 51H195.722V21H222.197L221.459 22.2857H200.062V29.5714Z" fill="#EAD587"/>
<path d="M242.665 30.6429C248.394 23.8714 250.868 21 250.868 21H252.561L243.49 31.6714C250.868 40.3714 259.939 51 259.939 51H254.253L240.669 35.0143L227.084 51H225.391C225.391 51 232.943 42.1286 239.844 34.0286L228.776 21H234.419L242.665 30.6429Z" fill="#EAD587"/>
<path d="M286.83 21L286.092 22.2857H273.896L273.81 51H269.903V22.2857H256.883L257.621 21H286.83Z" fill="#EAD587"/>
<path d="M46.6699 75.6354C45.9206 75.6354 45.2469 75.5169 44.6488 75.2799C44.0506 75.0428 43.54 74.6957 43.1171 74.2386C42.7002 73.7815 42.3799 73.2227 42.1564 72.5624C41.9388 71.9021 41.8301 71.1487 41.8301 70.3021C41.8301 69.3765 41.9026 68.5441 42.0476 67.8047C42.1926 67.0654 42.4283 66.4248 42.7545 65.883C43.0808 65.3356 43.5098 64.8869 44.0415 64.537C44.5793 64.1815 45.2379 63.9275 46.0173 63.7751L50.268 62.937L50.558 64.3254L46.4252 65.1127C45.688 65.2651 45.111 65.5077 44.6941 65.8407C44.2772 66.1681 43.972 66.5829 43.7787 67.0852C43.5853 67.5875 43.4585 68.1744 43.398 68.846C43.7787 68.3211 44.2621 67.9007 44.8482 67.5846C45.4403 67.2629 46.1351 67.1021 46.9327 67.1021C47.7907 67.1021 48.543 67.294 49.1895 67.6778C49.842 68.0559 50.3526 68.5638 50.7212 69.2016C51.0897 69.8337 51.274 70.5335 51.274 71.301C51.274 71.8936 51.1653 72.4524 50.9478 72.9772C50.7302 73.5021 50.416 73.9649 50.0052 74.3656C49.5943 74.7606 49.1079 75.0711 48.546 75.2968C47.9841 75.5225 47.3587 75.6354 46.6699 75.6354ZM46.6246 74.2301C47.1925 74.2301 47.7001 74.1116 48.1472 73.8746C48.5943 73.6319 48.9448 73.2933 49.1985 72.8587C49.4523 72.4241 49.5792 71.9106 49.5792 71.318C49.5792 70.7197 49.4523 70.2033 49.1985 69.7688C48.9448 69.3342 48.5943 68.9984 48.1472 68.7614C47.7061 68.5243 47.1986 68.4058 46.6246 68.4058C46.0506 68.4058 45.54 68.5243 45.0929 68.7614C44.6457 68.9984 44.2953 69.3342 44.0415 69.7688C43.7878 70.2033 43.6609 70.7197 43.6609 71.318C43.6609 71.9106 43.7878 72.4241 44.0415 72.8587C44.2953 73.2933 44.6457 73.6319 45.0929 73.8746C45.54 74.1116 46.0506 74.2301 46.6246 74.2301Z" fill="white"/>
<path d="M53.3831 75.5084L52.7668 74.0778C53.3891 73.931 53.8423 73.6968 54.1263 73.3751C54.4103 73.0478 54.5915 72.5878 54.6701 71.9952C54.7486 71.4026 54.7879 70.6322 54.7879 69.6841V67.0852H61.7938V75.3815H60.1262V68.4058H56.3649V69.6841C56.3649 70.5871 56.3226 71.3716 56.238 72.0375C56.1595 72.6979 56.0114 73.2566 55.7939 73.7137C55.5825 74.1709 55.2803 74.5462 54.8876 74.8397C54.5009 75.1275 53.9994 75.3504 53.3831 75.5084Z" fill="white"/>
<path d="M65.0318 75.3815V67.0852H66.6542V73.0449L71.8202 67.0852H73.2522V75.3815H71.6299V69.3539L66.4185 75.3815H65.0318Z" fill="white"/>
<path d="M81.2425 75.3815V71.6735H78.8226V70.3529H81.2425V67.0852H82.9102V70.3529H85.312V71.6735H82.9102V75.3815H81.2425ZM75.4964 75.3815L78.3513 70.9709L75.9043 67.0852H77.735L80.1549 70.9539L77.4178 75.3815H75.4964ZM86.6715 75.3815L83.9796 70.9539L86.463 67.0852H88.2303L85.7832 70.8778L88.6654 75.3815H86.6715Z" fill="white"/>
<path d="M90.9111 75.3815V67.0852H92.5787V70.3529H97.3913V67.0852H99.059V75.3815H97.3913V71.6735H92.5787V75.3815H90.9111Z" fill="white"/>
<path d="M106.299 75.6354C105.356 75.6354 104.525 75.452 103.806 75.0852C103.087 74.7183 102.525 74.2076 102.121 73.5529C101.716 72.8926 101.513 72.125 101.513 71.2502C101.513 70.6181 101.628 70.0312 101.858 69.4894C102.093 68.9476 102.42 68.4792 102.837 68.0841C103.259 67.689 103.752 67.3815 104.314 67.1614C104.882 66.9412 105.498 66.8312 106.163 66.8312C106.882 66.8312 107.522 66.9497 108.084 67.1867C108.652 67.4238 109.12 67.7568 109.489 68.1857C109.864 68.609 110.132 69.1084 110.296 69.6841C110.459 70.2541 110.492 70.8749 110.395 71.5465H103.163C103.145 72.0996 103.266 72.585 103.525 73.0026C103.785 73.4146 104.16 73.7363 104.649 73.9677C105.145 74.1991 105.731 74.3148 106.407 74.3148C106.903 74.3148 107.386 74.2414 107.858 74.0947C108.329 73.9479 108.746 73.7307 109.108 73.4428L109.815 74.6026C109.525 74.8227 109.181 75.0118 108.782 75.1698C108.389 75.3222 107.978 75.4379 107.549 75.5169C107.12 75.5959 106.704 75.6354 106.299 75.6354ZM103.253 70.336H108.728C108.704 69.6361 108.471 69.0915 108.03 68.7021C107.589 68.307 106.957 68.1095 106.136 68.1095C105.338 68.1095 104.679 68.307 104.16 68.7021C103.64 69.0915 103.338 69.6361 103.253 70.336Z" fill="white"/>
<path d="M116.999 75.6354C116.056 75.6354 115.226 75.452 114.507 75.0852C113.788 74.7183 113.226 74.2076 112.821 73.5529C112.416 72.8926 112.214 72.125 112.214 71.2502C112.214 70.6181 112.328 70.0312 112.558 69.4894C112.794 68.9476 113.12 68.4792 113.537 68.0841C113.96 67.689 114.452 67.3815 115.014 67.1614C115.582 66.9412 116.198 66.8312 116.863 66.8312C117.582 66.8312 118.223 66.9497 118.785 67.1867C119.353 67.4238 119.821 67.7568 120.189 68.1857C120.564 68.609 120.833 69.1084 120.996 69.6841C121.159 70.2541 121.192 70.8749 121.096 71.5465H113.863C113.845 72.0996 113.966 72.585 114.226 73.0026C114.486 73.4146 114.86 73.7363 115.35 73.9677C115.845 74.1991 116.431 74.3148 117.108 74.3148C117.603 74.3148 118.087 74.2414 118.558 74.0947C119.029 73.9479 119.446 73.7307 119.809 73.4428L120.516 74.6026C120.226 74.8227 119.881 75.0118 119.482 75.1698C119.09 75.3222 118.679 75.4379 118.25 75.5169C117.821 75.5959 117.404 75.6354 116.999 75.6354ZM113.954 70.336H119.428C119.404 69.6361 119.171 69.0915 118.73 68.7021C118.289 68.307 117.658 68.1095 116.836 68.1095C116.038 68.1095 115.38 68.307 114.86 68.7021C114.341 69.0915 114.038 69.6361 113.954 70.336Z" fill="white"/>
<path d="M127.303 75.3815L132.297 63.5296H134.064L139.212 75.3815H137.291L136.031 72.41H130.375L129.17 75.3815H127.303ZM130.856 71.0217H135.532L133.14 65.5021L130.856 71.0217Z" fill="white"/>
<path d="M141.244 78.937V67.0852H142.776V68.3296C143.145 67.8894 143.607 67.531 144.163 67.2545C144.725 66.9723 145.431 66.8312 146.283 66.8312C147.166 66.8312 147.942 67.0259 148.613 67.4153C149.283 67.7991 149.806 68.324 150.181 68.9899C150.561 69.6559 150.752 70.4037 150.752 71.2333C150.752 71.8372 150.643 72.4072 150.425 72.9434C150.214 73.4739 149.909 73.9423 149.51 74.3487C149.111 74.7494 148.637 75.0654 148.087 75.2968C147.543 75.5225 146.936 75.6354 146.265 75.6354C145.516 75.6354 144.861 75.5056 144.299 75.246C143.743 74.9808 143.277 74.6337 142.903 74.2047V78.937H141.244ZM145.984 74.2301C146.583 74.2301 147.111 74.1088 147.57 73.8661C148.036 73.6178 148.398 73.2707 148.658 72.8248C148.924 72.3733 149.057 71.8428 149.057 71.2333C149.057 70.6181 148.924 70.0876 148.658 69.6418C148.398 69.1903 148.036 68.8432 147.57 68.6005C147.111 68.3578 146.583 68.2365 145.984 68.2365C145.386 68.2365 144.854 68.3578 144.389 68.6005C143.93 68.8432 143.567 69.1903 143.302 69.6418C143.036 70.0876 142.903 70.6181 142.903 71.2333C142.903 71.8428 143.036 72.3733 143.302 72.8248C143.567 73.2707 143.93 73.6178 144.389 73.8661C144.854 74.1088 145.386 74.2301 145.984 74.2301Z" fill="white"/>
<path d="M157.479 75.6354C156.73 75.6354 156.056 75.5169 155.458 75.2799C154.86 75.0428 154.349 74.6957 153.926 74.2386C153.51 73.7815 153.189 73.2227 152.966 72.5624C152.748 71.9021 152.64 71.1487 152.64 70.3021C152.64 69.3765 152.712 68.5441 152.857 67.8047C153.002 67.0654 153.238 66.4248 153.564 65.883C153.89 65.3356 154.319 64.8869 154.851 64.537C155.389 64.1815 156.047 63.9275 156.827 63.7751L161.077 62.937L161.367 64.3254L157.235 65.1127C156.497 65.2651 155.92 65.5077 155.504 65.8407C155.087 66.1681 154.781 66.5829 154.588 67.0852C154.395 67.5875 154.268 68.1744 154.207 68.846C154.588 68.3211 155.071 67.9007 155.658 67.5846C156.25 67.2629 156.945 67.1021 157.742 67.1021C158.6 67.1021 159.352 67.294 159.999 67.6778C160.651 68.0559 161.162 68.5638 161.531 69.2016C161.899 69.8337 162.083 70.5335 162.083 71.301C162.083 71.8936 161.975 72.4524 161.757 72.9772C161.54 73.5021 161.225 73.9649 160.815 74.3656C160.404 74.7606 159.917 75.0711 159.355 75.2968C158.793 75.5225 158.168 75.6354 157.479 75.6354ZM157.434 74.2301C158.002 74.2301 158.509 74.1116 158.957 73.8746C159.404 73.6319 159.754 73.2933 160.008 72.8587C160.262 72.4241 160.389 71.9106 160.389 71.318C160.389 70.7197 160.262 70.2033 160.008 69.7688C159.754 69.3342 159.404 68.9984 158.957 68.7614C158.516 68.5243 158.008 68.4058 157.434 68.4058C156.86 68.4058 156.349 68.5243 155.902 68.7614C155.455 68.9984 155.105 69.3342 154.851 69.7688C154.597 70.2033 154.47 70.7197 154.47 71.318C154.47 71.9106 154.597 72.4241 154.851 72.8587C155.105 73.2933 155.455 73.6319 155.902 73.8746C156.349 74.1116 156.86 74.2301 157.434 74.2301Z" fill="white"/>
<path d="M168.713 75.6354C167.77 75.6354 166.94 75.452 166.221 75.0852C165.502 74.7183 164.94 74.2076 164.535 73.5529C164.13 72.8926 163.928 72.125 163.928 71.2502C163.928 70.6181 164.042 70.0312 164.272 69.4894C164.508 68.9476 164.834 68.4792 165.251 68.0841C165.674 67.689 166.166 67.3815 166.728 67.1614C167.296 66.9412 167.912 66.8312 168.577 66.8312C169.296 66.8312 169.937 66.9497 170.498 67.1867C171.066 67.4238 171.535 67.7568 171.903 68.1857C172.278 68.609 172.547 69.1084 172.71 69.6841C172.873 70.2541 172.906 70.8749 172.81 71.5465H165.577C165.559 72.0996 165.68 72.585 165.94 73.0026C166.199 73.4146 166.574 73.7363 167.063 73.9677C167.559 74.1991 168.145 74.3148 168.822 74.3148C169.317 74.3148 169.801 74.2414 170.272 74.0947C170.743 73.9479 171.16 73.7307 171.523 73.4428L172.23 74.6026C171.94 74.8227 171.595 75.0118 171.196 75.1698C170.804 75.3222 170.393 75.4379 169.964 75.5169C169.535 75.5959 169.118 75.6354 168.713 75.6354ZM165.668 70.336H171.142C171.118 69.6361 170.885 69.0915 170.444 68.7021C170.003 68.307 169.372 68.1095 168.55 68.1095C167.752 68.1095 167.094 68.307 166.574 68.7021C166.054 69.0915 165.752 69.6361 165.668 70.336Z" fill="white"/>
<path d="M181.283 75.3815L178.283 70.9539L180.974 67.0852H182.769L180.086 70.8778L183.295 75.3815H181.283ZM175.328 75.3815V67.0852H176.996V70.3529H179.651V71.6735H176.996V75.3815H175.328Z" fill="white"/>
<path d="M189.334 75.6354C188.416 75.6354 187.597 75.4351 186.878 75.0344C186.159 74.6337 185.594 74.1003 185.183 73.4344C184.773 72.7684 184.567 72.0347 184.567 71.2333C184.567 70.6407 184.685 70.0792 184.921 69.5487C185.156 69.0181 185.489 68.5497 185.918 68.1434C186.347 67.7314 186.851 67.4097 187.431 67.1783C188.011 66.9469 188.646 66.8312 189.334 66.8312C190.259 66.8312 191.081 67.0315 191.8 67.4322C192.519 67.833 193.084 68.3663 193.494 69.0322C193.905 69.6982 194.111 70.4319 194.111 71.2333C194.111 71.8259 193.993 72.3875 193.757 72.918C193.522 73.4485 193.189 73.9169 192.76 74.3233C192.331 74.7296 191.827 75.0513 191.247 75.2883C190.667 75.5197 190.029 75.6354 189.334 75.6354ZM189.334 74.2301C189.933 74.2301 190.461 74.1088 190.92 73.8661C191.386 73.6178 191.751 73.2707 192.017 72.8248C192.283 72.3733 192.416 71.8428 192.416 71.2333C192.416 70.6181 192.283 70.0876 192.017 69.6418C191.757 69.1903 191.395 68.8432 190.93 68.6005C190.464 68.3578 189.933 68.2365 189.334 68.2365C188.736 68.2365 188.204 68.3578 187.739 68.6005C187.28 68.8432 186.918 69.1903 186.652 69.6418C186.392 70.0876 186.262 70.6181 186.262 71.2333C186.262 71.8428 186.392 72.3733 186.652 72.8248C186.918 73.2707 187.283 73.6178 187.748 73.8661C188.214 74.1088 188.742 74.2301 189.334 74.2301Z" fill="white"/>
<path d="M196.569 75.3815V67.0852H200.648C201.639 67.0852 202.436 67.2658 203.04 67.627C203.651 67.9882 203.956 68.5243 203.956 69.2354C203.956 69.5515 203.877 69.8365 203.72 70.0905C203.563 70.3444 203.34 70.5617 203.05 70.7423C202.76 70.9173 202.418 71.0471 202.025 71.1317L201.998 70.7931C202.753 70.906 203.331 71.1543 203.729 71.5381C204.134 71.9162 204.337 72.3903 204.337 72.9603C204.337 73.4626 204.195 73.8943 203.911 74.2555C203.633 74.6167 203.234 74.8961 202.714 75.0936C202.195 75.2855 201.575 75.3815 200.856 75.3815H196.569ZM198.192 74.1709H200.63C201.282 74.1709 201.787 74.0693 202.143 73.8661C202.506 73.6629 202.687 73.3582 202.687 72.9518C202.687 72.5455 202.509 72.2435 202.152 72.046C201.796 71.8428 201.288 71.7412 200.63 71.7412H197.938V70.5645H200.421C201.038 70.5645 201.515 70.477 201.853 70.3021C202.192 70.1271 202.361 69.8365 202.361 69.4301C202.361 69.0294 202.192 68.7416 201.853 68.5666C201.521 68.386 201.044 68.2957 200.421 68.2957H198.192V74.1709Z" fill="white"/>
<path d="M211.054 75.6354C210.135 75.6354 209.317 75.4351 208.598 75.0344C207.879 74.6337 207.314 74.1003 206.903 73.4344C206.492 72.7684 206.286 72.0347 206.286 71.2333C206.286 70.6407 206.404 70.0792 206.64 69.5487C206.876 69.0181 207.208 68.5497 207.637 68.1434C208.066 67.7314 208.57 67.4097 209.15 67.1783C209.73 66.9469 210.365 66.8312 211.054 66.8312C211.978 66.8312 212.8 67.0315 213.519 67.4322C214.238 67.833 214.803 68.3663 215.214 69.0322C215.625 69.6982 215.83 70.4319 215.83 71.2333C215.83 71.8259 215.712 72.3875 215.477 72.918C215.241 73.4485 214.909 73.9169 214.48 74.3233C214.051 74.7296 213.546 75.0513 212.966 75.2883C212.386 75.5197 211.749 75.6354 211.054 75.6354ZM211.054 74.2301C211.652 74.2301 212.181 74.1088 212.64 73.8661C213.105 73.6178 213.471 73.2707 213.736 72.8248C214.002 72.3733 214.135 71.8428 214.135 71.2333C214.135 70.6181 214.002 70.0876 213.736 69.6418C213.477 69.1903 213.114 68.8432 212.649 68.6005C212.184 68.3578 211.652 68.2365 211.054 68.2365C210.456 68.2365 209.924 68.3578 209.459 68.6005C208.999 68.8432 208.637 69.1903 208.371 69.6418C208.111 70.0876 207.981 70.6181 207.981 71.2333C207.981 71.8428 208.111 72.3733 208.371 72.8248C208.637 73.2707 209.002 73.6178 209.468 73.8661C209.933 74.1088 210.462 74.2301 211.054 74.2301Z" fill="white"/>
</svg>
