<svg width="59" height="59" viewBox="0 0 59 59" fill="none" xmlns="http://www.w3.org/2000/svg">
<path d="M32.0519 38.8848H12.8029C12.4771 38.8848 12.2129 39.1489 12.2129 39.4748C12.2129 39.8006 12.4771 40.0648 12.8029 40.0648H32.0519C32.3778 40.0648 32.6419 39.8006 32.6419 39.4748C32.6419 39.1489 32.3778 38.8848 32.0519 38.8848Z" fill="#EAD587"/>
<path d="M32.0519 44.8394H12.8029C12.4771 44.8394 12.2129 45.1035 12.2129 45.4294C12.2129 45.7552 12.4771 46.0194 12.8029 46.0194H32.0519C32.3778 46.0194 32.6419 45.7552 32.6419 45.4294C32.6419 45.1035 32.3778 44.8394 32.0519 44.8394Z" fill="#EAD587"/>
<path d="M22.4263 34.8334C26.8885 34.8334 30.5189 31.2029 30.5189 26.7408C30.5189 22.2786 26.8885 18.6484 22.4263 18.6484C17.9642 18.6484 14.334 22.2789 14.334 26.7411C14.334 31.2032 17.9642 34.8334 22.4263 34.8334ZM22.4263 19.8284C26.238 19.8284 29.3389 22.9294 29.3389 26.7411C29.3389 30.5524 26.238 33.6534 22.4263 33.6534C18.6149 33.6534 15.514 30.5524 15.514 26.7408C15.514 22.9294 18.6149 19.8284 22.4263 19.8284Z" fill="#EAD587"/>
<path d="M20.4692 30.3529C20.5798 30.4635 20.7299 30.5257 20.8863 30.5257C21.0427 30.5257 21.1928 30.4635 21.3034 30.3529L26.8056 24.8504C27.0361 24.6199 27.0361 24.2466 26.8056 24.0161C26.5751 23.7856 26.2018 23.7856 25.9713 24.0161L20.8863 29.1014L18.8841 27.0992C18.6536 26.8687 18.2803 26.8687 18.0498 27.0992C17.8193 27.3297 17.8193 27.703 18.0498 27.9335L20.4692 30.3529Z" fill="#EAD587"/>
<path d="M6.49039 53.1H38.6644C38.9902 53.1 39.2544 52.8359 39.2544 52.51V47.6361L52.5738 46.1978C52.7293 46.1811 52.8719 46.103 52.9699 45.9811C53.0681 45.8593 53.1136 45.7034 53.0969 45.5479L48.8722 6.42665C48.8554 6.27108 48.7774 6.12848 48.6555 6.03053C48.5336 5.932 48.3772 5.8862 48.2222 5.90348L17.4895 9.22252C17.1657 9.25738 16.9312 9.54835 16.9663 9.87244L17.1985 12.0227H6.49039C6.16457 12.0227 5.90039 12.2869 5.90039 12.6127V52.51C5.90039 52.8359 6.16457 53.1 6.49039 53.1ZM18.2028 10.3322L47.7624 7.13995L51.8605 45.0881L39.2544 46.4493V12.6127C39.2544 12.2869 38.9902 12.0227 38.6644 12.0227H18.3853L18.2028 10.3322ZM7.08039 13.2027H38.0744V51.92H7.08039V13.2027Z" fill="#EAD587"/>
</svg>
