<svg width="59" height="59" viewBox="0 0 59 59" fill="none" xmlns="http://www.w3.org/2000/svg">
<path d="M51.8471 12.3517L42.1302 6.95373C41.0215 6.38381 39.6972 6.38381 38.5702 6.96288L37.6872 7.4536C35.9747 5.93246 33.7285 5 31.263 5H28.4784C26.6551 5 24.9591 5.72784 23.7026 7.0494C22.446 8.37142 21.8051 10.1022 21.8976 11.9232C21.9841 13.6293 22.7161 15.2127 23.9589 16.3841L25.7739 18.0952C24.9138 18.5781 24.1008 19.1751 23.3698 19.9061C20.7706 22.5048 19.6491 26.1756 20.3344 29.7851L19.0412 31.0782C18.8068 31.3126 18.8068 31.6921 19.0412 31.9265L19.9187 32.8045L6.17578 46.5469C6.06317 46.6595 6 46.812 6 46.9713V52.3999C6 52.7313 6.26871 53 6.60013 53H11.8484C11.972 53 12.08 52.9538 12.1757 52.8897C12.2027 52.8723 12.2315 52.8576 12.2553 52.8357C12.275 52.8174 12.2887 52.7958 12.3057 52.7752C12.3395 52.7359 12.3693 52.6951 12.3922 52.6471C12.3986 52.6329 12.4018 52.6178 12.4073 52.6027C12.4224 52.5638 12.4421 52.5271 12.4485 52.4841L13.0129 48.838L16.6594 48.2736C16.9181 48.2338 17.1209 48.0305 17.1607 47.7719L17.7233 44.1281L21.3657 43.5669C21.6243 43.5271 21.8271 43.3243 21.8669 43.0652L22.4291 39.4223L25.9882 38.8735L26.7783 39.664V49.1186C26.7783 51.2582 28.5196 53 30.6596 53H50.0582C52.1982 53 53.9396 51.2582 53.9396 49.1186V15.7959C53.9396 14.3333 53.1307 13.0104 51.8471 12.3517ZM23.096 11.8623C23.0205 10.3732 23.5446 8.95735 24.5723 7.87658C25.6 6.79534 26.987 6.19979 28.4784 6.19979H31.263C33.2712 6.19979 35.1159 6.90383 36.5716 8.07341L28.8881 12.3425C27.5871 13.0104 26.7783 14.3333 26.7783 15.7959V17.393L24.782 15.5111C23.7653 14.553 23.167 13.2576 23.096 11.8623ZM21.411 30.4049C21.5561 30.2602 21.617 30.0515 21.5731 29.8519C20.8434 26.5414 21.8326 23.1406 24.218 20.7548C24.9628 20.01 25.7991 19.414 26.6895 18.9581L29.0424 21.1759C28.2221 21.5074 27.4681 22.0017 26.8236 22.6458C26.5892 22.8802 26.5892 23.2601 26.8236 23.4945L35.4153 32.0862C35.5325 32.2034 35.6859 32.262 35.8397 32.262C35.993 32.262 36.1464 32.2034 36.2636 32.0862C38.8664 29.4834 38.8664 25.2486 36.2636 22.6458C36.2567 22.6389 36.2494 22.6334 36.242 22.6266C36.2411 22.6257 36.2407 22.6243 36.2398 22.6234C36.2388 22.6225 36.2375 22.622 36.2365 22.6211C34.9786 21.3769 33.3142 20.6902 31.5436 20.6902C31.1517 20.6902 30.7663 20.7296 30.3877 20.7955L27.8961 18.4468C31.3655 17.2222 35.3851 17.9844 38.155 20.7548C41.997 24.5972 41.997 30.8489 38.155 34.6918C35.7692 37.0777 32.368 38.0673 29.0579 37.3368C28.8583 37.2942 28.6496 37.3537 28.5045 37.4984L27.4072 38.5956L20.3138 31.5026L21.411 30.4049ZM31.6841 23.6662C32.2865 24.2338 33.0633 24.5423 33.8859 24.5423C33.9326 24.5423 33.9793 24.5409 34.0265 24.5387C34.6756 24.5112 35.2844 24.2933 35.7939 23.917C37.4144 25.9115 37.4235 28.7885 35.8163 30.7898L28.1191 23.093C28.6876 22.6353 29.3362 22.3043 30.0288 22.1056L31.6841 23.6662ZM31.5495 21.8905C32.7841 21.8919 33.9541 22.3034 34.9113 23.0537C34.6293 23.2208 34.3135 23.3251 33.9757 23.3398C33.4263 23.3645 32.9059 23.1695 32.5072 22.7932L31.5495 21.8905ZM21.8116 38.3036C21.5529 38.3434 21.3501 38.5462 21.3103 38.8048L20.7482 42.4477L17.1062 43.0089C16.8471 43.0487 16.6443 43.2515 16.6045 43.5106L16.0415 47.1553L12.3954 47.7193C12.1372 47.7591 11.9344 47.9619 11.8941 48.2205L11.3403 51.7997H7.19979V47.2194L20.7669 33.6527L24.9362 37.8215L21.8116 38.3036ZM52.7393 49.1186C52.7393 50.5967 51.5363 51.7997 50.0582 51.7997H30.6596C29.1811 51.7997 27.9785 50.5967 27.9785 49.1186V39.7212L29.1248 38.5755C32.7333 39.2607 36.4045 38.1388 39.0033 35.54C43.3135 31.2298 43.3135 24.2164 39.0033 19.9061C36.0241 16.9274 31.7546 16.0101 27.9785 17.1485V15.7959C27.9785 14.7856 28.537 13.8714 29.4539 13.4004L37.4899 8.93538C38.7812 10.3306 39.608 12.1553 39.7325 14.1713H38.0818C37.7504 14.1713 37.4821 14.4395 37.4821 14.7709C37.4821 15.1028 37.7504 15.3711 38.0818 15.3711H42.6287C42.9602 15.3711 43.2289 15.1028 43.2289 14.7709C43.2289 14.4395 42.9602 14.1713 42.6287 14.1713H40.9323C40.8123 11.9442 39.943 9.91774 38.5656 8.33754L39.1356 8.02123C39.9014 7.62847 40.8165 7.62847 41.5649 8.01162L51.2814 13.41C52.1809 13.8714 52.7393 14.7856 52.7393 15.7959V49.1186Z" fill="#EAD587"/>
</svg>
