<svg display="none" xmlns="http://www.w3.org/2000/svg">

    <symbol id="close-icon" viewBox="0 0 32 32">
        <path
            d="M9.20132 23.7772L8.22266 22.8079L15.0213 15.9999L8.22266 9.22653L9.20132 8.25586L16 15.0532L22.7653 8.25719L23.744 9.22653L16.9453 15.9999L23.744 22.8079L22.7653 23.7772L16 16.9825L9.20132 23.7772Z" />
    </symbol>

    <symbol id="star" viewBox="0 0 26 22">
        <path
            d="M8.38108 18.0766L13.0011 15.2899L17.6211 18.1132L16.4111 12.8332L20.4811 9.31323L15.1277 8.83656L13.0011 3.8499L10.8744 8.7999L5.52108 9.27656L9.59108 12.8332L8.38108 18.0766ZM6.14442 21.1536L7.96308 13.3612L1.91602 8.1223L9.88148 7.43296L13.0011 0.0834961L16.1207 7.4315L24.0847 8.12083L18.0376 13.3598L19.8577 21.1522L13.0011 17.0162L6.14442 21.1536Z" />
    </symbol>

    <symbol id="arrow-left" viewBox="0 0 32 32">
        <path
            d="M8.69726 16.6666L13.6773 21.6466C13.807 21.7764 13.875 21.9293 13.8813 22.1053C13.8866 22.2813 13.8186 22.4426 13.6773 22.5893C13.5297 22.7368 13.371 22.8115 13.2013 22.8133C13.0315 22.8151 12.8728 22.7431 12.7253 22.5973L6.88259 16.7533C6.66659 16.5382 6.55859 16.2871 6.55859 16C6.55859 15.7128 6.66659 15.4613 6.88259 15.2453L12.7253 9.40262C12.8559 9.27284 13.0101 9.20484 13.1879 9.19862C13.3666 9.1924 13.5297 9.26306 13.6773 9.41062C13.8195 9.55729 13.8915 9.71417 13.8933 9.88129C13.8959 10.0493 13.8239 10.2066 13.6773 10.3533L8.69726 15.3333H25.2039C25.3941 15.3333 25.5533 15.3968 25.6813 15.524C25.8093 15.6511 25.8728 15.8097 25.8719 16C25.871 16.1902 25.8075 16.3488 25.6813 16.476C25.555 16.6031 25.3964 16.6666 25.2053 16.6666H8.69726Z" />
    </symbol>

</svg>